<svg width="753" height="348" xmlns="http://www.w3.org/2000/svg">

 <g>
  <title>background</title>
  <rect fill="none" id="canvas_background" height="350" width="755" y="-1" x="-1"/>
 </g>
 <g>
  <title>Layer 1</title>
  <g id="surface1">
   <path id="svg_1" fill-rule="nonzero" fill="rgb(99.609375%,76.078796%,5.879211%)" d="m692.82031,5.46875l-682.38672,0l0,12.26172l733.4961,0l0,-12.26172l-51.10938,0zm0,0"/>
   <path id="svg_2" fill-rule="nonzero" fill="rgb(99.609375%,76.078796%,5.879211%)" d="m13.80859,225.79297l0,-220.83594l-8.25781,0l0,255l8.25781,0l0,-34.16406zm0,0"/>
   <path id="svg_3" fill-rule="nonzero" fill="rgb(99.609375%,76.078796%,5.879211%)" d="m746.79297,223.15234l0,-218.20312l-8.17578,0l0,252.36719l8.17578,0l0,-34.16407zm0,0"/>
   <path id="svg_4" fill-rule="nonzero" fill="rgb(99.609375%,76.078796%,5.879211%)" d="m221.07813,247.32813l-210.63672,0l0,12.20703l261.6875,0l0,-12.20703l-51.05078,0zm0,0"/>
   <path id="svg_5" fill-rule="nonzero" fill="rgb(99.609375%,76.078796%,5.879211%)" d="m342.53906,304.39453l-70.89062,-56.28125l-7.64063,9.625l110.875,88.02344l7.64063,-9.625l-39.98438,-31.74219zm0,0"/>
   <path id="svg_6" fill-rule="nonzero" fill="rgb(99.609375%,76.078796%,5.879211%)" d="m436.76953,278.22656l-69.68359,57.76563l7.84375,9.46094l108.98828,-90.34766l-7.84375,-9.46484l-39.30469,32.58593zm0,0"/>
   <path id="svg_7" fill-rule="nonzero" fill="rgb(99.609375%,76.078796%,5.879211%)" d="m693.35547,246.55859l-219.91406,0l0,11.9961l269.64843,0l0,-11.9961l-49.73437,0zm0,0"/>
  </g>
 </g>
</svg>