<?xml version="1.0" encoding="UTF-8"?>
<svg xmlns="http://www.w3.org/2000/svg" xmlns:xlink="http://www.w3.org/1999/xlink" width="1440pt" height="809.999993pt" viewBox="0 0 1440 809.999993" version="1.2">
<defs>
<clipPath id="clip1">
  <path d="M 0 373.113281 L 482 373.113281 L 482 789 L 0 789 Z M 0 373.113281 "/>
</clipPath>
<clipPath id="clip2">
  <path d="M 70.011719 729.957031 C 74.523438 729.957031 78.808594 729.730469 83.097656 729.277344 C 114.230469 725.667969 145.585938 733.792969 169.953125 753.429688 C 187.550781 767.421875 209.882812 776 234.25 776 C 249.136719 776 263.578125 772.839844 276.4375 766.972656 C 290.875 760.425781 307.792969 762.007812 320.878906 770.808594 C 338.925781 782.996094 360.808594 789.542969 384.273438 788.1875 C 437.0625 785.027344 481.507812 741.917969 481.507812 689.101562 C 481.507812 627.710938 442.027344 601.304688 411.796875 590.019531 C 393.523438 583.246094 382.46875 564.289062 385.175781 544.875 C 386.980469 531.558594 388.332031 517.339844 387.65625 506.28125 C 383.597656 434.730469 325.390625 376.949219 253.648438 373.339844 C 191.382812 370.179688 137.691406 407.421875 115.582031 460.914062 C 107.914062 479.421875 89.636719 491.160156 69.558594 490.933594 L 69.109375 490.933594 C 3.007812 490.933594 -50.460938 544.425781 -50.234375 610.558594 C -49.78125 676.238281 4.363281 730.40625 70.011719 729.957031 Z M 70.011719 729.957031 "/>
</clipPath>
<linearGradient id="linear0" gradientUnits="userSpaceOnUse" x1="-0.000000858694" y1="109.709999" x2="213.433351" y2="109.709999" gradientTransform="matrix(-2.256005,-0.000000000000000276,0.000000000000000276,-2.257065,481.506772,828.363779)">
<stop offset="0" style="stop-color:rgb(1.199341%,44.699097%,44.699097%);stop-opacity:1;"/>
<stop offset="0.03125" style="stop-color:rgb(1.182556%,44.799805%,44.842529%);stop-opacity:1;"/>
<stop offset="0.0625" style="stop-color:rgb(1.147461%,45.001221%,45.132446%);stop-opacity:1;"/>
<stop offset="0.09375" style="stop-color:rgb(1.113892%,45.201111%,45.420837%);stop-opacity:1;"/>
<stop offset="0.125" style="stop-color:rgb(1.080322%,45.402527%,45.709229%);stop-opacity:1;"/>
<stop offset="0.15625" style="stop-color:rgb(1.046753%,45.603943%,45.99762%);stop-opacity:1;"/>
<stop offset="0.1875" style="stop-color:rgb(1.011658%,45.805359%,46.287537%);stop-opacity:1;"/>
<stop offset="0.21875" style="stop-color:rgb(0.978088%,46.005249%,46.575928%);stop-opacity:1;"/>
<stop offset="0.25" style="stop-color:rgb(0.944519%,46.206665%,46.864319%);stop-opacity:1;"/>
<stop offset="0.28125" style="stop-color:rgb(0.91095%,46.408081%,47.15271%);stop-opacity:1;"/>
<stop offset="0.3125" style="stop-color:rgb(0.875854%,46.607971%,47.442627%);stop-opacity:1;"/>
<stop offset="0.34375" style="stop-color:rgb(0.842285%,46.809387%,47.731018%);stop-opacity:1;"/>
<stop offset="0.375" style="stop-color:rgb(0.808716%,47.010803%,48.019409%);stop-opacity:1;"/>
<stop offset="0.40625" style="stop-color:rgb(0.773621%,47.212219%,48.3078%);stop-opacity:1;"/>
<stop offset="0.4375" style="stop-color:rgb(0.740051%,47.412109%,48.597717%);stop-opacity:1;"/>
<stop offset="0.46875" style="stop-color:rgb(0.706482%,47.613525%,48.886108%);stop-opacity:1;"/>
<stop offset="0.5" style="stop-color:rgb(0.672913%,47.814941%,49.1745%);stop-opacity:1;"/>
<stop offset="0.53125" style="stop-color:rgb(0.637817%,48.016357%,49.462891%);stop-opacity:1;"/>
<stop offset="0.5625" style="stop-color:rgb(0.604248%,48.216248%,49.752808%);stop-opacity:1;"/>
<stop offset="0.59375" style="stop-color:rgb(0.570679%,48.417664%,50.041199%);stop-opacity:1;"/>
<stop offset="0.625" style="stop-color:rgb(0.537109%,48.61908%,50.32959%);stop-opacity:1;"/>
<stop offset="0.65625" style="stop-color:rgb(0.502014%,48.820496%,50.619507%);stop-opacity:1;"/>
<stop offset="0.6875" style="stop-color:rgb(0.468445%,49.020386%,50.907898%);stop-opacity:1;"/>
<stop offset="0.71875" style="stop-color:rgb(0.434875%,49.221802%,51.196289%);stop-opacity:1;"/>
<stop offset="0.75" style="stop-color:rgb(0.401306%,49.423218%,51.48468%);stop-opacity:1;"/>
<stop offset="0.78125" style="stop-color:rgb(0.366211%,49.624634%,51.774597%);stop-opacity:1;"/>
<stop offset="0.8125" style="stop-color:rgb(0.332642%,49.824524%,52.062988%);stop-opacity:1;"/>
<stop offset="0.84375" style="stop-color:rgb(0.299072%,50.02594%,52.351379%);stop-opacity:1;"/>
<stop offset="0.875" style="stop-color:rgb(0.263977%,50.227356%,52.639771%);stop-opacity:1;"/>
<stop offset="0.90625" style="stop-color:rgb(0.230408%,50.428772%,52.929688%);stop-opacity:1;"/>
<stop offset="0.9375" style="stop-color:rgb(0.196838%,50.628662%,53.218079%);stop-opacity:1;"/>
<stop offset="0.96875" style="stop-color:rgb(0.163269%,50.830078%,53.50647%);stop-opacity:1;"/>
<stop offset="1" style="stop-color:rgb(0.128174%,51.031494%,53.794861%);stop-opacity:1;"/>
</linearGradient>
<clipPath id="clip3">
  <path d="M 68 753 L 143 753 L 143 810 L 68 810 Z M 68 753 "/>
</clipPath>
<clipPath id="clip4">
  <path d="M 68.207031 791.121094 C 68.207031 789.902344 68.265625 788.6875 68.386719 787.472656 C 68.503906 786.257812 68.683594 785.054688 68.921875 783.855469 C 69.160156 782.660156 69.457031 781.480469 69.808594 780.3125 C 70.164062 779.144531 70.574219 777.996094 71.039062 776.871094 C 71.507812 775.742188 72.027344 774.640625 72.601562 773.566406 C 73.175781 772.492188 73.800781 771.445312 74.480469 770.433594 C 75.15625 769.417969 75.882812 768.4375 76.65625 767.496094 C 77.429688 766.554688 78.246094 765.652344 79.109375 764.789062 C 79.972656 763.925781 80.875 763.109375 81.816406 762.335938 C 82.757812 761.558594 83.738281 760.835938 84.75 760.15625 C 85.765625 759.480469 86.808594 758.851562 87.882812 758.277344 C 88.957031 757.703125 90.058594 757.183594 91.1875 756.714844 C 92.3125 756.25 93.457031 755.839844 94.625 755.484375 C 95.792969 755.128906 96.972656 754.835938 98.167969 754.597656 C 99.363281 754.359375 100.570312 754.179688 101.78125 754.058594 C 102.996094 753.941406 104.210938 753.878906 105.429688 753.878906 C 106.648438 753.878906 107.867188 753.941406 109.078125 754.058594 C 110.292969 754.179688 111.496094 754.359375 112.691406 754.597656 C 113.886719 754.835938 115.070312 755.128906 116.234375 755.484375 C 117.402344 755.839844 118.550781 756.25 119.675781 756.714844 C 120.800781 757.183594 121.902344 757.703125 122.976562 758.277344 C 124.054688 758.851562 125.097656 759.480469 126.109375 760.15625 C 127.125 760.835938 128.101562 761.558594 129.046875 762.335938 C 129.988281 763.109375 130.890625 763.925781 131.753906 764.789062 C 132.613281 765.652344 133.433594 766.554688 134.207031 767.496094 C 134.980469 768.4375 135.703125 769.417969 136.382812 770.433594 C 137.058594 771.445312 137.683594 772.492188 138.257812 773.566406 C 138.835938 774.640625 139.355469 775.742188 139.820312 776.871094 C 140.289062 777.996094 140.699219 779.144531 141.050781 780.3125 C 141.40625 781.480469 141.703125 782.660156 141.941406 783.855469 C 142.175781 785.054688 142.355469 786.257812 142.476562 787.472656 C 142.59375 788.6875 142.65625 789.902344 142.65625 791.121094 C 142.65625 792.34375 142.59375 793.558594 142.476562 794.773438 C 142.355469 795.988281 142.175781 797.191406 141.941406 798.386719 C 141.703125 799.582031 141.40625 800.765625 141.050781 801.933594 C 140.699219 803.101562 140.289062 804.246094 139.820312 805.375 C 139.355469 806.5 138.835938 807.601562 138.257812 808.679688 C 137.683594 809.753906 137.058594 810.796875 136.382812 811.8125 C 135.703125 812.828125 134.980469 813.804688 134.207031 814.746094 C 133.433594 815.691406 132.613281 816.59375 131.753906 817.457031 C 130.890625 818.320312 129.988281 819.136719 129.046875 819.910156 C 128.101562 820.683594 127.125 821.410156 126.113281 822.085938 C 125.097656 822.765625 124.054688 823.390625 122.976562 823.964844 C 121.902344 824.542969 120.800781 825.0625 119.675781 825.527344 C 118.550781 825.996094 117.402344 826.40625 116.234375 826.761719 C 115.070312 827.113281 113.886719 827.410156 112.691406 827.648438 C 111.496094 827.886719 110.292969 828.066406 109.078125 828.183594 C 107.867188 828.304688 106.648438 828.363281 105.429688 828.363281 C 104.210938 828.363281 102.996094 828.304688 101.78125 828.183594 C 100.570312 828.066406 99.363281 827.886719 98.167969 827.648438 C 96.972656 827.410156 95.792969 827.113281 94.625 826.761719 C 93.457031 826.40625 92.3125 825.996094 91.1875 825.527344 C 90.058594 825.0625 88.957031 824.542969 87.882812 823.964844 C 86.808594 823.390625 85.765625 822.765625 84.75 822.085938 C 83.738281 821.410156 82.757812 820.683594 81.816406 819.910156 C 80.875 819.136719 79.972656 818.320312 79.109375 817.457031 C 78.246094 816.59375 77.429688 815.691406 76.65625 814.746094 C 75.882812 813.804688 75.15625 812.828125 74.480469 811.8125 C 73.800781 810.796875 73.175781 809.753906 72.601562 808.679688 C 72.027344 807.601562 71.507812 806.5 71.039062 805.375 C 70.574219 804.246094 70.164062 803.101562 69.808594 801.933594 C 69.457031 800.765625 69.160156 799.582031 68.921875 798.386719 C 68.683594 797.191406 68.503906 795.988281 68.386719 794.773438 C 68.265625 793.558594 68.207031 792.34375 68.207031 791.121094 Z M 68.207031 791.121094 "/>
</clipPath>
<linearGradient id="linear1" gradientUnits="userSpaceOnUse" x1="150.199997" y1="109.709999" x2="183.2" y2="109.709999" gradientTransform="matrix(-2.256005,-0.000000000000000276,0.000000000000000276,-2.257065,481.506772,828.363779)">
<stop offset="0" style="stop-color:rgb(0.434875%,49.226379%,51.202393%);stop-opacity:1;"/>
<stop offset="0.25" style="stop-color:rgb(0.413513%,49.349976%,51.38092%);stop-opacity:1;"/>
<stop offset="0.5" style="stop-color:rgb(0.370789%,49.598694%,51.737976%);stop-opacity:1;"/>
<stop offset="0.75" style="stop-color:rgb(0.328064%,49.847412%,52.095032%);stop-opacity:1;"/>
<stop offset="1" style="stop-color:rgb(0.286865%,50.09613%,52.452087%);stop-opacity:1;"/>
</linearGradient>
<clipPath id="clip5">
  <path d="M 40 411 L 81 411 L 81 452 L 40 452 Z M 40 411 "/>
</clipPath>
<clipPath id="clip6">
  <path d="M 40.683594 431.570312 C 40.683594 430.914062 40.714844 430.257812 40.78125 429.601562 C 40.84375 428.949219 40.941406 428.296875 41.070312 427.652344 C 41.199219 427.007812 41.355469 426.371094 41.546875 425.742188 C 41.738281 425.109375 41.960938 424.492188 42.210938 423.882812 C 42.464844 423.277344 42.746094 422.683594 43.054688 422.101562 C 43.363281 421.523438 43.703125 420.957031 44.066406 420.410156 C 44.433594 419.863281 44.824219 419.335938 45.242188 418.828125 C 45.65625 418.320312 46.097656 417.832031 46.5625 417.367188 C 47.027344 416.902344 47.515625 416.460938 48.023438 416.042969 C 48.53125 415.625 49.058594 415.234375 49.605469 414.871094 C 50.152344 414.503906 50.71875 414.164062 51.296875 413.855469 C 51.875 413.546875 52.46875 413.265625 53.078125 413.011719 C 53.6875 412.761719 54.304688 412.539062 54.933594 412.347656 C 55.5625 412.15625 56.199219 412 56.84375 411.871094 C 57.488281 411.742188 58.140625 411.644531 58.792969 411.582031 C 59.449219 411.515625 60.105469 411.484375 60.761719 411.484375 C 61.417969 411.484375 62.074219 411.515625 62.730469 411.582031 C 63.382812 411.644531 64.035156 411.742188 64.679688 411.871094 C 65.324219 412 65.960938 412.15625 66.589844 412.347656 C 67.21875 412.539062 67.839844 412.761719 68.445312 413.011719 C 69.054688 413.265625 69.648438 413.546875 70.226562 413.855469 C 70.808594 414.167969 71.371094 414.503906 71.917969 414.871094 C 72.464844 415.234375 72.992188 415.625 73.5 416.042969 C 74.007812 416.460938 74.496094 416.902344 74.960938 417.367188 C 75.425781 417.832031 75.867188 418.320312 76.28125 418.828125 C 76.699219 419.335938 77.089844 419.863281 77.457031 420.410156 C 77.820312 420.957031 78.160156 421.523438 78.46875 422.101562 C 78.78125 422.683594 79.058594 423.277344 79.3125 423.882812 C 79.5625 424.492188 79.785156 425.109375 79.976562 425.742188 C 80.167969 426.371094 80.324219 427.007812 80.453125 427.652344 C 80.582031 428.296875 80.679688 428.949219 80.742188 429.601562 C 80.808594 430.257812 80.839844 430.914062 80.839844 431.570312 C 80.839844 432.230469 80.808594 432.886719 80.742188 433.539062 C 80.679688 434.195312 80.582031 434.84375 80.453125 435.492188 C 80.324219 436.136719 80.167969 436.773438 79.976562 437.402344 C 79.785156 438.03125 79.5625 438.652344 79.3125 439.257812 C 79.058594 439.867188 78.78125 440.460938 78.46875 441.042969 C 78.160156 441.621094 77.820312 442.183594 77.457031 442.730469 C 77.089844 443.277344 76.699219 443.808594 76.28125 444.316406 C 75.867188 444.824219 75.425781 445.3125 74.960938 445.777344 C 74.496094 446.242188 74.007812 446.683594 73.5 447.101562 C 72.992188 447.515625 72.464844 447.910156 71.917969 448.273438 C 71.371094 448.640625 70.808594 448.976562 70.226562 449.289062 C 69.648438 449.597656 69.054688 449.878906 68.445312 450.128906 C 67.839844 450.382812 67.21875 450.605469 66.589844 450.792969 C 65.960938 450.984375 65.324219 451.144531 64.679688 451.273438 C 64.035156 451.402344 63.382812 451.5 62.730469 451.5625 C 62.074219 451.628906 61.417969 451.660156 60.761719 451.660156 C 60.105469 451.660156 59.449219 451.628906 58.792969 451.5625 C 58.140625 451.5 57.488281 451.402344 56.84375 451.273438 C 56.199219 451.144531 55.5625 450.984375 54.933594 450.792969 C 54.304688 450.605469 53.6875 450.382812 53.078125 450.128906 C 52.46875 449.878906 51.875 449.597656 51.296875 449.289062 C 50.71875 448.976562 50.152344 448.640625 49.605469 448.273438 C 49.058594 447.910156 48.53125 447.515625 48.023438 447.101562 C 47.515625 446.683594 47.027344 446.242188 46.5625 445.777344 C 46.097656 445.3125 45.65625 444.824219 45.242188 444.316406 C 44.824219 443.808594 44.433594 443.277344 44.066406 442.730469 C 43.703125 442.183594 43.363281 441.621094 43.054688 441.042969 C 42.746094 440.460938 42.464844 439.867188 42.210938 439.257812 C 41.960938 438.652344 41.738281 438.03125 41.546875 437.402344 C 41.355469 436.773438 41.199219 436.136719 41.070312 435.492188 C 40.941406 434.84375 40.84375 434.195312 40.78125 433.539062 C 40.714844 432.886719 40.683594 432.230469 40.683594 431.570312 Z M 40.683594 431.570312 "/>
</clipPath>
<linearGradient id="linear2" gradientUnits="userSpaceOnUse" x1="177.60001" y1="109.709999" x2="195.40002" y2="109.709999" gradientTransform="matrix(-2.256005,-0.000000000000000276,0.000000000000000276,-2.257065,481.506772,828.363779)">
<stop offset="0" style="stop-color:rgb(0.294495%,50.05188%,52.389526%);stop-opacity:1;"/>
<stop offset="0.5" style="stop-color:rgb(0.271606%,50.186157%,52.581787%);stop-opacity:1;"/>
<stop offset="1" style="stop-color:rgb(0.22583%,50.454712%,52.966309%);stop-opacity:1;"/>
</linearGradient>
<clipPath id="clip7">
  <path d="M 409 523 L 459 523 L 459 574 L 409 574 Z M 409 523 "/>
</clipPath>
<clipPath id="clip8">
  <path d="M 409.089844 548.714844 C 409.089844 547.898438 409.128906 547.089844 409.207031 546.28125 C 409.289062 545.472656 409.40625 544.667969 409.566406 543.871094 C 409.722656 543.074219 409.921875 542.285156 410.15625 541.507812 C 410.394531 540.726562 410.667969 539.964844 410.976562 539.210938 C 411.289062 538.460938 411.636719 537.726562 412.019531 537.011719 C 412.402344 536.292969 412.820312 535.597656 413.269531 534.921875 C 413.722656 534.242188 414.207031 533.589844 414.722656 532.964844 C 415.238281 532.335938 415.78125 531.734375 416.359375 531.15625 C 416.933594 530.582031 417.535156 530.039062 418.160156 529.519531 C 418.789062 529.003906 419.441406 528.523438 420.117188 528.070312 C 420.792969 527.617188 421.488281 527.199219 422.207031 526.816406 C 422.921875 526.433594 423.65625 526.085938 424.410156 525.777344 C 425.160156 525.464844 425.921875 525.191406 426.703125 524.953125 C 427.480469 524.71875 428.265625 524.523438 429.0625 524.363281 C 429.859375 524.203125 430.664062 524.085938 431.472656 524.003906 C 432.28125 523.925781 433.09375 523.886719 433.90625 523.886719 C 434.71875 523.886719 435.527344 523.925781 436.335938 524.003906 C 437.144531 524.085938 437.949219 524.203125 438.746094 524.363281 C 439.542969 524.523438 440.332031 524.71875 441.109375 524.953125 C 441.886719 525.191406 442.652344 525.464844 443.402344 525.777344 C 444.152344 526.085938 444.886719 526.433594 445.601562 526.816406 C 446.320312 527.199219 447.015625 527.617188 447.691406 528.070312 C 448.367188 528.523438 449.019531 529.003906 449.648438 529.519531 C 450.277344 530.039062 450.878906 530.582031 451.453125 531.15625 C 452.027344 531.734375 452.574219 532.335938 453.089844 532.964844 C 453.605469 533.589844 454.085938 534.242188 454.539062 534.921875 C 454.992188 535.597656 455.40625 536.292969 455.789062 537.011719 C 456.175781 537.726562 456.519531 538.460938 456.832031 539.210938 C 457.144531 539.964844 457.417969 540.726562 457.652344 541.507812 C 457.886719 542.285156 458.085938 543.074219 458.246094 543.871094 C 458.402344 544.667969 458.523438 545.472656 458.601562 546.28125 C 458.679688 547.089844 458.722656 547.898438 458.722656 548.714844 C 458.722656 549.527344 458.679688 550.335938 458.601562 551.148438 C 458.523438 551.957031 458.402344 552.757812 458.246094 553.558594 C 458.085938 554.355469 457.886719 555.140625 457.652344 555.921875 C 457.417969 556.699219 457.144531 557.464844 456.832031 558.214844 C 456.519531 558.964844 456.175781 559.699219 455.789062 560.417969 C 455.40625 561.132812 454.992188 561.832031 454.539062 562.507812 C 454.085938 563.183594 453.605469 563.835938 453.089844 564.464844 C 452.574219 565.09375 452.027344 565.695312 451.453125 566.269531 C 450.878906 566.84375 450.277344 567.390625 449.648438 567.90625 C 449.019531 568.421875 448.367188 568.90625 447.691406 569.355469 C 447.015625 569.808594 446.320312 570.226562 445.601562 570.609375 C 444.886719 570.992188 444.152344 571.339844 443.402344 571.652344 C 442.652344 571.960938 441.886719 572.234375 441.109375 572.472656 C 440.332031 572.707031 439.542969 572.90625 438.746094 573.0625 C 437.949219 573.222656 437.144531 573.34375 436.335938 573.421875 C 435.527344 573.5 434.71875 573.542969 433.90625 573.542969 C 433.09375 573.542969 432.28125 573.5 431.472656 573.421875 C 430.664062 573.34375 429.859375 573.222656 429.0625 573.0625 C 428.265625 572.90625 427.480469 572.707031 426.703125 572.472656 C 425.921875 572.234375 425.160156 571.960938 424.410156 571.652344 C 423.65625 571.339844 422.921875 570.992188 422.207031 570.609375 C 421.488281 570.226562 420.792969 569.808594 420.117188 569.355469 C 419.441406 568.90625 418.789062 568.421875 418.160156 567.90625 C 417.535156 567.390625 416.933594 566.84375 416.359375 566.269531 C 415.78125 565.695312 415.238281 565.09375 414.722656 564.464844 C 414.207031 563.835938 413.722656 563.183594 413.269531 562.507812 C 412.820312 561.832031 412.402344 561.132812 412.019531 560.417969 C 411.636719 559.699219 411.289062 558.964844 410.976562 558.214844 C 410.667969 557.464844 410.394531 556.699219 410.15625 555.921875 C 409.921875 555.140625 409.722656 554.355469 409.566406 553.558594 C 409.40625 552.757812 409.289062 551.957031 409.207031 551.148438 C 409.128906 550.335938 409.089844 549.527344 409.089844 548.714844 Z M 409.089844 548.714844 "/>
</clipPath>
<linearGradient id="linear3" gradientUnits="userSpaceOnUse" x1="10.1" y1="109.709999" x2="32.099997" y2="109.709999" gradientTransform="matrix(-2.256005,-0.000000000000000276,0.000000000000000276,-2.257065,481.506772,828.363779)">
<stop offset="0" style="stop-color:rgb(1.147461%,45.004272%,45.137024%);stop-opacity:1;"/>
<stop offset="0.25" style="stop-color:rgb(1.133728%,45.08667%,45.256042%);stop-opacity:1;"/>
<stop offset="0.5" style="stop-color:rgb(1.104736%,45.251465%,45.49408%);stop-opacity:1;"/>
<stop offset="0.75" style="stop-color:rgb(1.077271%,45.417786%,45.732117%);stop-opacity:1;"/>
<stop offset="1" style="stop-color:rgb(1.049805%,45.582581%,45.970154%);stop-opacity:1;"/>
</linearGradient>
<clipPath id="clip9">
  <path d="M 989 2 L 1440 2 L 1440 325 L 989 325 Z M 989 2 "/>
</clipPath>
<clipPath id="clip10">
  <path d="M 994.4375 -7.308594 L 1472.03125 4.945312 L 1463.71875 328.839844 L 986.125 316.585938 Z M 994.4375 -7.308594 "/>
</clipPath>
<clipPath id="clip11">
  <path d="M 994.4375 -7.308594 L 1472.03125 4.945312 L 1463.71875 328.839844 L 986.125 316.585938 Z M 994.4375 -7.308594 "/>
</clipPath>
<clipPath id="clip12">
  <path d="M 1469.171875 79.265625 C 1466.90625 39.105469 1434.621094 6.3125 1394.597656 3.152344 C 1363.667969 0.617188 1335.773438 15.59375 1320.050781 39.40625 C 1312.191406 51.214844 1297.15625 55.867188 1283.714844 51.066406 C 1273.351562 47.3125 1261.976562 45.082031 1250.363281 44.785156 C 1216.289062 43.910156 1185.484375 59.003906 1165.09375 83.472656 C 1153.300781 97.699219 1134.546875 103.804688 1116.421875 100.433594 C 1108.519531 98.875 1100.203125 98.273438 1091.863281 98.640625 C 1037.753906 100.933594 993.632812 144.164062 989.925781 198.121094 C 985.640625 259.421875 1033.320312 311.402344 1094.113281 312.960938 C 1119.28125 313.609375 1142.542969 305.488281 1161.109375 291.628906 C 1179.875 277.578125 1205.796875 279.019531 1222.820312 295.148438 C 1242.683594 313.867188 1269.707031 325.21875 1299.5625 324.433594 C 1354.425781 322.9375 1399.914062 279.160156 1403.449219 224.425781 C 1403.808594 218.039062 1403.769531 212.035156 1403.152344 205.820312 C 1400.972656 185.035156 1410.785156 165.136719 1428.878906 154.558594 C 1454.246094 139.90625 1471.054688 111.472656 1469.171875 79.265625 Z M 1469.171875 79.265625 "/>
</clipPath>
<linearGradient id="linear4" gradientUnits="userSpaceOnUse" x1="7.255024" y1="196.569621" x2="269.313565" y2="72.66098" gradientTransform="matrix(1.936051,0.0496833,-0.049682,1.936003,995.002928,-7.29478)">
<stop offset="0" style="stop-color:rgb(1.164246%,44.908142%,44.999695%);stop-opacity:1;"/>
<stop offset="0.03125" style="stop-color:rgb(1.144409%,45.025635%,45.169067%);stop-opacity:1;"/>
<stop offset="0.0625" style="stop-color:rgb(1.10321%,45.262146%,45.509338%);stop-opacity:1;"/>
<stop offset="0.09375" style="stop-color:rgb(1.063538%,45.498657%,45.848083%);stop-opacity:1;"/>
<stop offset="0.125" style="stop-color:rgb(1.023865%,45.735168%,46.186829%);stop-opacity:1;"/>
<stop offset="0.15625" style="stop-color:rgb(0.984192%,45.97168%,46.5271%);stop-opacity:1;"/>
<stop offset="0.1875" style="stop-color:rgb(0.944519%,46.206665%,46.865845%);stop-opacity:1;"/>
<stop offset="0.21875" style="stop-color:rgb(0.904846%,46.443176%,47.206116%);stop-opacity:1;"/>
<stop offset="0.25" style="stop-color:rgb(0.863647%,46.679688%,47.544861%);stop-opacity:1;"/>
<stop offset="0.255945" style="stop-color:rgb(0.823975%,46.916199%,47.885132%);stop-opacity:1;"/>
<stop offset="0.28125" style="stop-color:rgb(0.804138%,47.035217%,48.054504%);stop-opacity:1;"/>
<stop offset="0.3125" style="stop-color:rgb(0.784302%,47.15271%,48.223877%);stop-opacity:1;"/>
<stop offset="0.34375" style="stop-color:rgb(0.744629%,47.389221%,48.564148%);stop-opacity:1;"/>
<stop offset="0.375" style="stop-color:rgb(0.704956%,47.624207%,48.902893%);stop-opacity:1;"/>
<stop offset="0.40625" style="stop-color:rgb(0.665283%,47.860718%,49.241638%);stop-opacity:1;"/>
<stop offset="0.4375" style="stop-color:rgb(0.624084%,48.097229%,49.581909%);stop-opacity:1;"/>
<stop offset="0.46875" style="stop-color:rgb(0.584412%,48.33374%,49.920654%);stop-opacity:1;"/>
<stop offset="0.5" style="stop-color:rgb(0.544739%,48.570251%,50.260925%);stop-opacity:1;"/>
<stop offset="0.53125" style="stop-color:rgb(0.505066%,48.806763%,50.59967%);stop-opacity:1;"/>
<stop offset="0.5625" style="stop-color:rgb(0.465393%,49.041748%,50.939941%);stop-opacity:1;"/>
<stop offset="0.59375" style="stop-color:rgb(0.42572%,49.278259%,51.278687%);stop-opacity:1;"/>
<stop offset="0.625" style="stop-color:rgb(0.384521%,49.514771%,51.618958%);stop-opacity:1;"/>
<stop offset="0.65625" style="stop-color:rgb(0.344849%,49.751282%,51.957703%);stop-opacity:1;"/>
<stop offset="0.6875" style="stop-color:rgb(0.305176%,49.987793%,52.296448%);stop-opacity:1;"/>
<stop offset="0.71875" style="stop-color:rgb(0.265503%,50.224304%,52.636719%);stop-opacity:1;"/>
<stop offset="0.744055" style="stop-color:rgb(0.22583%,50.460815%,52.975464%);stop-opacity:1;"/>
<stop offset="0.75" style="stop-color:rgb(0.205994%,50.578308%,53.146362%);stop-opacity:1;"/>
<stop offset="0.78125" style="stop-color:rgb(0.186157%,50.695801%,53.315735%);stop-opacity:1;"/>
<stop offset="0.8125" style="stop-color:rgb(0.144958%,50.932312%,53.65448%);stop-opacity:1;"/>
<stop offset="0.84375" style="stop-color:rgb(0.105286%,51.168823%,53.994751%);stop-opacity:1;"/>
<stop offset="0.875" style="stop-color:rgb(0.0656128%,51.405334%,54.333496%);stop-opacity:1;"/>
<stop offset="0.90625" style="stop-color:rgb(0.0259399%,51.641846%,54.673767%);stop-opacity:1;"/>
<stop offset="0.9375" style="stop-color:rgb(0.00305176%,51.779175%,54.870605%);stop-opacity:1;"/>
<stop offset="1" style="stop-color:rgb(0%,51.799011%,54.899597%);stop-opacity:1;"/>
</linearGradient>
<clipPath id="clip13">
  <path d="M 1047 577 L 1440 577 L 1440 810 L 1047 810 Z M 1047 577 "/>
</clipPath>
<clipPath id="clip14">
  <path d="M 1470.082031 997.128906 L 1023.660156 826.976562 L 1139.054688 524.222656 L 1585.476562 694.375 Z M 1470.082031 997.128906 "/>
</clipPath>
<clipPath id="clip15">
  <path d="M 1470.082031 997.128906 L 1023.660156 826.976562 L 1139.054688 524.222656 L 1585.476562 694.375 Z M 1470.082031 997.128906 "/>
</clipPath>
<clipPath id="clip16">
  <path d="M 1051.035156 757.824219 C 1039.835938 796.457031 1059.398438 838.109375 1096.101562 854.378906 C 1124.433594 867.042969 1155.71875 862.179688 1178.457031 844.941406 C 1189.792969 836.410156 1205.519531 837.015625 1216.601562 846.007812 C 1225.132812 852.988281 1235.117188 858.867188 1245.976562 863.007812 C 1277.828125 875.148438 1311.894531 871.136719 1339.253906 854.828125 C 1355.101562 845.328125 1374.820312 845.796875 1390.796875 854.992188 C 1397.734375 859.089844 1405.378906 862.417969 1413.367188 864.839844 C 1465.167969 880.644531 1521.136719 854.519531 1542.554688 804.855469 C 1566.953125 748.457031 1539.238281 683.59375 1482.414062 661.933594 C 1458.886719 652.964844 1434.25 652.902344 1412.132812 659.808594 C 1389.769531 666.828125 1365.792969 656.863281 1355.09375 635.996094 C 1342.578125 611.742188 1320.851562 592.0625 1292.433594 582.890625 C 1240.183594 566.082031 1182.738281 592.269531 1161.230469 642.726562 C 1158.773438 648.628906 1156.8125 654.308594 1155.332031 660.375 C 1150.484375 680.703125 1134.625 696.210938 1114.042969 700.179688 C 1085.25 705.578125 1059.953125 726.820312 1051.035156 757.824219 Z M 1051.035156 757.824219 "/>
</clipPath>
<linearGradient id="linear5" gradientUnits="userSpaceOnUse" x1="38.802721" y1="181.652983" x2="307.177591" y2="54.757805" gradientTransform="matrix(-1.809691,-0.689768,0.689751,-1.809646,1469.552114,996.928721)">
<stop offset="0" style="stop-color:rgb(1.010132%,45.819092%,46.307373%);stop-opacity:1;"/>
<stop offset="0.03125" style="stop-color:rgb(0.98877%,45.939636%,46.481323%);stop-opacity:1;"/>
<stop offset="0.0625" style="stop-color:rgb(0.947571%,46.180725%,46.829224%);stop-opacity:1;"/>
<stop offset="0.09375" style="stop-color:rgb(0.907898%,46.42334%,47.175598%);stop-opacity:1;"/>
<stop offset="0.125" style="stop-color:rgb(0.866699%,46.664429%,47.523499%);stop-opacity:1;"/>
<stop offset="0.15625" style="stop-color:rgb(0.8255%,46.907043%,47.871399%);stop-opacity:1;"/>
<stop offset="0.1875" style="stop-color:rgb(0.784302%,47.149658%,48.219299%);stop-opacity:1;"/>
<stop offset="0.21875" style="stop-color:rgb(0.743103%,47.390747%,48.5672%);stop-opacity:1;"/>
<stop offset="0.25" style="stop-color:rgb(0.70343%,47.633362%,48.913574%);stop-opacity:1;"/>
<stop offset="0.275428" style="stop-color:rgb(0.662231%,47.874451%,49.261475%);stop-opacity:1;"/>
<stop offset="0.28125" style="stop-color:rgb(0.642395%,47.996521%,49.435425%);stop-opacity:1;"/>
<stop offset="0.3125" style="stop-color:rgb(0.621033%,48.117065%,49.609375%);stop-opacity:1;"/>
<stop offset="0.34375" style="stop-color:rgb(0.579834%,48.358154%,49.957275%);stop-opacity:1;"/>
<stop offset="0.375" style="stop-color:rgb(0.538635%,48.600769%,50.305176%);stop-opacity:1;"/>
<stop offset="0.40625" style="stop-color:rgb(0.498962%,48.843384%,50.653076%);stop-opacity:1;"/>
<stop offset="0.4375" style="stop-color:rgb(0.457764%,49.084473%,50.999451%);stop-opacity:1;"/>
<stop offset="0.46875" style="stop-color:rgb(0.416565%,49.327087%,51.347351%);stop-opacity:1;"/>
<stop offset="0.5" style="stop-color:rgb(0.375366%,49.568176%,51.695251%);stop-opacity:1;"/>
<stop offset="0.53125" style="stop-color:rgb(0.334167%,49.810791%,52.043152%);stop-opacity:1;"/>
<stop offset="0.5625" style="stop-color:rgb(0.294495%,50.05188%,52.391052%);stop-opacity:1;"/>
<stop offset="0.59375" style="stop-color:rgb(0.253296%,50.294495%,52.737427%);stop-opacity:1;"/>
<stop offset="0.625" style="stop-color:rgb(0.212097%,50.537109%,53.085327%);stop-opacity:1;"/>
<stop offset="0.65625" style="stop-color:rgb(0.170898%,50.778198%,53.433228%);stop-opacity:1;"/>
<stop offset="0.6875" style="stop-color:rgb(0.1297%,51.020813%,53.781128%);stop-opacity:1;"/>
<stop offset="0.71875" style="stop-color:rgb(0.0900269%,51.261902%,54.129028%);stop-opacity:1;"/>
<stop offset="0.724572" style="stop-color:rgb(0.0488281%,51.504517%,54.475403%);stop-opacity:1;"/>
<stop offset="0.75" style="stop-color:rgb(0.0289917%,51.625061%,54.649353%);stop-opacity:1;"/>
<stop offset="1" style="stop-color:rgb(0.0137329%,51.712036%,54.774475%);stop-opacity:1;"/>
</linearGradient>
<clipPath id="clip17">
  <path d="M 754 470 L 1016 470 L 1016 698 L 754 698 Z M 754 470 "/>
</clipPath>
<clipPath id="clip18">
  <path d="M 771.28125 440.078125 L 1039.140625 500.085938 L 987.824219 729.160156 L 719.960938 669.152344 Z M 771.28125 440.078125 "/>
</clipPath>
<clipPath id="clip19">
  <path d="M 771.28125 440.078125 L 1039.140625 500.085938 L 987.824219 729.160156 L 719.960938 669.152344 Z M 771.28125 440.078125 "/>
</clipPath>
<clipPath id="clip20">
  <path d="M 967.425781 536.023438 C 965.15625 535.515625 962.976562 535.144531 960.769531 534.890625 C 944.699219 533.199219 929.84375 525.574219 919.800781 512.949219 C 912.527344 503.925781 902.257812 497.09375 890.003906 494.347656 C 882.511719 492.667969 874.894531 492.632812 867.765625 494.136719 C 859.761719 495.800781 851.429688 493.101562 845.839844 487.195312 C 838.136719 479.03125 827.867188 473.269531 815.910156 471.308594 C 789 466.949219 761.785156 483.632812 755.832031 510.207031 C 748.910156 541.101562 765.792969 558.835938 779.726562 567.921875 C 788.15625 573.386719 791.582031 584.171875 788.03125 593.636719 C 785.621094 600.132812 783.335938 607.136719 782.433594 612.777344 C 776.410156 649.234375 799.175781 684.871094 834.855469 694.769531 C 865.816406 703.378906 897.023438 690.6875 914.175781 666.265625 C 920.121094 657.816406 930.636719 653.96875 940.710938 656.34375 L 940.9375 656.394531 C 974.1875 663.84375 1007.109375 642.953125 1014.453125 609.652344 C 1021.628906 576.550781 1000.5 543.195312 967.425781 536.023438 Z M 967.425781 536.023438 "/>
</clipPath>
<linearGradient id="linear6" gradientUnits="userSpaceOnUse" x1="-13.938602" y1="109.709999" x2="259.340183" y2="109.709999" gradientTransform="matrix(1.134809,0.254223,-0.254425,1.135708,771.53003,440.135606)">
<stop offset="0" style="stop-color:rgb(1.199341%,44.699097%,44.699097%);stop-opacity:1;"/>
<stop offset="0.0625" style="stop-color:rgb(1.190186%,44.746399%,44.766235%);stop-opacity:1;"/>
<stop offset="0.09375" style="stop-color:rgb(1.161194%,44.921875%,45.019531%);stop-opacity:1;"/>
<stop offset="0.125" style="stop-color:rgb(1.116943%,45.179749%,45.39032%);stop-opacity:1;"/>
<stop offset="0.15625" style="stop-color:rgb(1.074219%,45.436096%,45.759583%);stop-opacity:1;"/>
<stop offset="0.1875" style="stop-color:rgb(1.029968%,45.69397%,46.128845%);stop-opacity:1;"/>
<stop offset="0.21875" style="stop-color:rgb(0.987244%,45.951843%,46.499634%);stop-opacity:1;"/>
<stop offset="0.25" style="stop-color:rgb(0.942993%,46.209717%,46.868896%);stop-opacity:1;"/>
<stop offset="0.28125" style="stop-color:rgb(0.900269%,46.466064%,47.238159%);stop-opacity:1;"/>
<stop offset="0.3125" style="stop-color:rgb(0.856018%,46.723938%,47.608948%);stop-opacity:1;"/>
<stop offset="0.34375" style="stop-color:rgb(0.813293%,46.981812%,47.97821%);stop-opacity:1;"/>
<stop offset="0.375" style="stop-color:rgb(0.769043%,47.238159%,48.347473%);stop-opacity:1;"/>
<stop offset="0.40625" style="stop-color:rgb(0.726318%,47.496033%,48.716736%);stop-opacity:1;"/>
<stop offset="0.4375" style="stop-color:rgb(0.682068%,47.753906%,49.087524%);stop-opacity:1;"/>
<stop offset="0.46875" style="stop-color:rgb(0.639343%,48.010254%,49.456787%);stop-opacity:1;"/>
<stop offset="0.5" style="stop-color:rgb(0.595093%,48.268127%,49.82605%);stop-opacity:1;"/>
<stop offset="0.53125" style="stop-color:rgb(0.552368%,48.526001%,50.196838%);stop-opacity:1;"/>
<stop offset="0.5625" style="stop-color:rgb(0.508118%,48.782349%,50.566101%);stop-opacity:1;"/>
<stop offset="0.59375" style="stop-color:rgb(0.465393%,49.040222%,50.935364%);stop-opacity:1;"/>
<stop offset="0.625" style="stop-color:rgb(0.421143%,49.298096%,51.306152%);stop-opacity:1;"/>
<stop offset="0.65625" style="stop-color:rgb(0.378418%,49.554443%,51.675415%);stop-opacity:1;"/>
<stop offset="0.6875" style="stop-color:rgb(0.334167%,49.812317%,52.044678%);stop-opacity:1;"/>
<stop offset="0.71875" style="stop-color:rgb(0.291443%,50.07019%,52.415466%);stop-opacity:1;"/>
<stop offset="0.75" style="stop-color:rgb(0.247192%,50.326538%,52.784729%);stop-opacity:1;"/>
<stop offset="0.78125" style="stop-color:rgb(0.204468%,50.584412%,53.153992%);stop-opacity:1;"/>
<stop offset="0.8125" style="stop-color:rgb(0.160217%,50.842285%,53.52478%);stop-opacity:1;"/>
<stop offset="0.84375" style="stop-color:rgb(0.117493%,51.098633%,53.894043%);stop-opacity:1;"/>
<stop offset="0.875" style="stop-color:rgb(0.0732422%,51.356506%,54.263306%);stop-opacity:1;"/>
<stop offset="0.90625" style="stop-color:rgb(0.0305176%,51.61438%,54.634094%);stop-opacity:1;"/>
<stop offset="0.9375" style="stop-color:rgb(0.00457764%,51.77002%,54.858398%);stop-opacity:1;"/>
<stop offset="1" style="stop-color:rgb(0%,51.799011%,54.899597%);stop-opacity:1;"/>
</linearGradient>
<clipPath id="clip21">
  <path d="M 937 482 L 976 482 L 976 521 L 937 521 Z M 937 482 "/>
</clipPath>
<clipPath id="clip22">
  <path d="M 771.28125 440.078125 L 1039.140625 500.085938 L 987.824219 729.160156 L 719.960938 669.152344 Z M 771.28125 440.078125 "/>
</clipPath>
<clipPath id="clip23">
  <path d="M 771.28125 440.078125 L 1039.140625 500.085938 L 987.824219 729.160156 L 719.960938 669.152344 Z M 771.28125 440.078125 "/>
</clipPath>
<clipPath id="clip24">
  <path d="M 975.230469 505.449219 C 975.089844 506.0625 974.925781 506.667969 974.726562 507.265625 C 974.53125 507.863281 974.304688 508.449219 974.050781 509.023438 C 973.796875 509.597656 973.511719 510.160156 973.203125 510.707031 C 972.894531 511.253906 972.558594 511.785156 972.195312 512.300781 C 971.835938 512.816406 971.449219 513.308594 971.039062 513.785156 C 970.628906 514.261719 970.195312 514.71875 969.742188 515.152344 C 969.285156 515.585938 968.8125 515.996094 968.316406 516.382812 C 967.820312 516.773438 967.308594 517.132812 966.777344 517.46875 C 966.246094 517.808594 965.699219 518.117188 965.136719 518.402344 C 964.578125 518.683594 964.003906 518.9375 963.417969 519.164062 C 962.832031 519.390625 962.234375 519.589844 961.628906 519.757812 C 961.023438 519.925781 960.410156 520.0625 959.792969 520.171875 C 959.171875 520.28125 958.550781 520.355469 957.921875 520.402344 C 957.296875 520.449219 956.667969 520.464844 956.039062 520.453125 C 955.410156 520.4375 954.785156 520.390625 954.164062 520.3125 C 953.539062 520.238281 952.917969 520.128906 952.304688 519.992188 C 951.691406 519.855469 951.089844 519.6875 950.492188 519.492188 C 949.894531 519.292969 949.308594 519.070312 948.734375 518.816406 C 948.160156 518.558594 947.597656 518.277344 947.050781 517.96875 C 946.503906 517.660156 945.972656 517.324219 945.460938 516.960938 C 944.945312 516.597656 944.453125 516.214844 943.976562 515.804688 C 943.5 515.390625 943.042969 514.960938 942.613281 514.503906 C 942.179688 514.050781 941.769531 513.574219 941.382812 513.078125 C 940.992188 512.582031 940.632812 512.070312 940.296875 511.539062 C 939.960938 511.007812 939.648438 510.460938 939.367188 509.898438 C 939.085938 509.335938 938.828125 508.761719 938.605469 508.175781 C 938.378906 507.589844 938.179688 506.992188 938.011719 506.386719 C 937.84375 505.78125 937.707031 505.167969 937.597656 504.550781 C 937.492188 503.929688 937.414062 503.304688 937.367188 502.679688 C 937.320312 502.050781 937.304688 501.425781 937.320312 500.796875 C 937.335938 500.167969 937.382812 499.539062 937.457031 498.917969 C 937.535156 498.292969 937.644531 497.671875 937.78125 497.058594 C 937.917969 496.445312 938.085938 495.839844 938.28125 495.242188 C 938.480469 494.644531 938.703125 494.058594 938.960938 493.484375 C 939.214844 492.910156 939.496094 492.347656 939.804688 491.800781 C 940.113281 491.253906 940.449219 490.722656 940.8125 490.207031 C 941.171875 489.691406 941.558594 489.199219 941.96875 488.722656 C 942.378906 488.246094 942.8125 487.789062 943.269531 487.355469 C 943.722656 486.921875 944.199219 486.511719 944.695312 486.125 C 945.1875 485.734375 945.703125 485.375 946.234375 485.035156 C 946.765625 484.699219 947.308594 484.390625 947.871094 484.105469 C 948.433594 483.824219 949.007812 483.570312 949.59375 483.34375 C 950.179688 483.117188 950.773438 482.917969 951.378906 482.75 C 951.984375 482.582031 952.597656 482.445312 953.21875 482.335938 C 953.835938 482.226562 954.460938 482.152344 955.085938 482.105469 C 955.714844 482.058594 956.339844 482.042969 956.96875 482.054688 C 957.597656 482.070312 958.222656 482.117188 958.847656 482.195312 C 959.472656 482.269531 960.089844 482.378906 960.703125 482.515625 C 961.316406 482.652344 961.921875 482.820312 962.519531 483.015625 C 963.113281 483.210938 963.699219 483.4375 964.273438 483.691406 C 964.847656 483.949219 965.410156 484.230469 965.957031 484.539062 C 966.503906 484.847656 967.035156 485.183594 967.546875 485.546875 C 968.0625 485.90625 968.558594 486.292969 969.035156 486.703125 C 969.507812 487.113281 969.964844 487.546875 970.398438 488.003906 C 970.832031 488.457031 971.242188 488.933594 971.628906 489.429688 C 972.015625 489.925781 972.375 490.4375 972.714844 490.96875 C 973.050781 491.5 973.359375 492.046875 973.640625 492.609375 C 973.925781 493.167969 974.179688 493.742188 974.40625 494.332031 C 974.632812 494.917969 974.828125 495.511719 974.996094 496.121094 C 975.164062 496.726562 975.300781 497.339844 975.410156 497.957031 C 975.519531 498.578125 975.59375 499.199219 975.640625 499.828125 C 975.6875 500.457031 975.703125 501.082031 975.6875 501.710938 C 975.671875 502.339844 975.628906 502.96875 975.550781 503.589844 C 975.472656 504.214844 975.367188 504.835938 975.230469 505.449219 Z M 975.230469 505.449219 "/>
</clipPath>
<linearGradient id="linear7" gradientUnits="userSpaceOnUse" x1="146.978907" y1="109.709999" x2="186.421051" y2="109.709999" gradientTransform="matrix(1.134809,0.254223,-0.254425,1.135708,771.53003,440.135606)">
<stop offset="0" style="stop-color:rgb(0.450134%,49.128723%,51.063538%);stop-opacity:1;"/>
<stop offset="0.125" style="stop-color:rgb(0.437927%,49.203491%,51.170349%);stop-opacity:1;"/>
<stop offset="0.25" style="stop-color:rgb(0.411987%,49.351501%,51.382446%);stop-opacity:1;"/>
<stop offset="0.375" style="stop-color:rgb(0.387573%,49.499512%,51.596069%);stop-opacity:1;"/>
<stop offset="0.5" style="stop-color:rgb(0.361633%,49.649048%,51.809692%);stop-opacity:1;"/>
<stop offset="0.625" style="stop-color:rgb(0.337219%,49.797058%,52.023315%);stop-opacity:1;"/>
<stop offset="0.75" style="stop-color:rgb(0.312805%,49.945068%,52.236938%);stop-opacity:1;"/>
<stop offset="0.875" style="stop-color:rgb(0.286865%,50.094604%,52.450562%);stop-opacity:1;"/>
<stop offset="1" style="stop-color:rgb(0.262451%,50.242615%,52.664185%);stop-opacity:1;"/>
</linearGradient>
<clipPath id="clip25">
  <path d="M 928 676 L 949 676 L 949 698 L 928 698 Z M 928 676 "/>
</clipPath>
<clipPath id="clip26">
  <path d="M 771.28125 440.078125 L 1039.140625 500.085938 L 987.824219 729.160156 L 719.960938 669.152344 Z M 771.28125 440.078125 "/>
</clipPath>
<clipPath id="clip27">
  <path d="M 771.28125 440.078125 L 1039.140625 500.085938 L 987.824219 729.160156 L 719.960938 669.152344 Z M 771.28125 440.078125 "/>
</clipPath>
<clipPath id="clip28">
  <path d="M 948.542969 689.46875 C 948.394531 690.132812 948.183594 690.773438 947.90625 691.398438 C 947.632812 692.019531 947.300781 692.609375 946.910156 693.164062 C 946.515625 693.71875 946.074219 694.234375 945.582031 694.703125 C 945.089844 695.171875 944.558594 695.589844 943.984375 695.953125 C 943.410156 696.316406 942.804688 696.621094 942.171875 696.867188 C 941.539062 697.113281 940.886719 697.292969 940.21875 697.410156 C 939.546875 697.527344 938.871094 697.578125 938.195312 697.5625 C 937.515625 697.542969 936.84375 697.460938 936.179688 697.3125 C 935.515625 697.164062 934.875 696.953125 934.253906 696.679688 C 933.632812 696.402344 933.042969 696.070312 932.488281 695.679688 C 931.929688 695.285156 931.417969 694.84375 930.949219 694.351562 C 930.480469 693.859375 930.066406 693.328125 929.699219 692.753906 C 929.335938 692.179688 929.03125 691.574219 928.789062 690.941406 C 928.542969 690.304688 928.363281 689.652344 928.246094 688.984375 C 928.128906 688.3125 928.078125 687.636719 928.097656 686.957031 C 928.113281 686.277344 928.195312 685.605469 928.34375 684.941406 C 928.492188 684.28125 928.703125 683.636719 928.980469 683.015625 C 929.253906 682.394531 929.589844 681.804688 929.980469 681.246094 C 930.371094 680.691406 930.8125 680.179688 931.304688 679.707031 C 931.796875 679.238281 932.328125 678.824219 932.902344 678.457031 C 933.476562 678.09375 934.082031 677.789062 934.714844 677.542969 C 935.347656 677.300781 936 677.117188 936.671875 677 C 937.339844 676.882812 938.015625 676.835938 938.695312 676.851562 C 939.375 676.867188 940.046875 676.949219 940.707031 677.097656 C 941.371094 677.246094 942.015625 677.457031 942.636719 677.734375 C 943.257812 678.007812 943.84375 678.34375 944.402344 678.734375 C 944.957031 679.125 945.46875 679.566406 945.9375 680.058594 C 946.40625 680.550781 946.824219 681.082031 947.1875 681.660156 C 947.550781 682.234375 947.855469 682.835938 948.101562 683.472656 C 948.34375 684.105469 948.523438 684.757812 948.640625 685.429688 C 948.757812 686.097656 948.808594 686.773438 948.792969 687.453125 C 948.773438 688.132812 948.691406 688.804688 948.542969 689.46875 Z M 948.542969 689.46875 "/>
</clipPath>
<linearGradient id="linear8" gradientUnits="userSpaceOnUse" x1="175.854098" y1="109.709999" x2="197.145841" y2="109.709999" gradientTransform="matrix(1.134809,0.254223,-0.254425,1.135708,771.53003,440.135606)">
<stop offset="0" style="stop-color:rgb(0.30365%,49.998474%,52.313232%);stop-opacity:1;"/>
<stop offset="0.25" style="stop-color:rgb(0.289917%,50.079346%,52.427673%);stop-opacity:1;"/>
<stop offset="0.5" style="stop-color:rgb(0.262451%,50.239563%,52.658081%);stop-opacity:1;"/>
<stop offset="0.75" style="stop-color:rgb(0.234985%,50.39978%,52.888489%);stop-opacity:1;"/>
<stop offset="1" style="stop-color:rgb(0.209045%,50.559998%,53.118896%);stop-opacity:1;"/>
</linearGradient>
<clipPath id="clip29">
  <path d="M 751 573 L 777 573 L 777 600 L 751 600 Z M 751 573 "/>
</clipPath>
<clipPath id="clip30">
  <path d="M 771.28125 440.078125 L 1039.140625 500.085938 L 987.824219 729.160156 L 719.960938 669.152344 Z M 771.28125 440.078125 "/>
</clipPath>
<clipPath id="clip31">
  <path d="M 771.28125 440.078125 L 1039.140625 500.085938 L 987.824219 729.160156 L 719.960938 669.152344 Z M 771.28125 440.078125 "/>
</clipPath>
<clipPath id="clip32">
  <path d="M 776.433594 589.011719 C 776.25 589.832031 775.988281 590.625 775.648438 591.394531 C 775.308594 592.164062 774.894531 592.890625 774.414062 593.578125 C 773.929688 594.265625 773.382812 594.898438 772.777344 595.480469 C 772.167969 596.058594 771.507812 596.574219 770.800781 597.023438 C 770.089844 597.476562 769.34375 597.851562 768.558594 598.15625 C 767.777344 598.457031 766.96875 598.679688 766.144531 598.824219 C 765.316406 598.96875 764.480469 599.03125 763.640625 599.011719 C 762.800781 598.992188 761.972656 598.890625 761.152344 598.707031 C 760.332031 598.523438 759.539062 598.261719 758.769531 597.921875 C 758.003906 597.582031 757.277344 597.167969 756.589844 596.683594 C 755.902344 596.203125 755.269531 595.65625 754.6875 595.046875 C 754.109375 594.4375 753.59375 593.78125 753.144531 593.070312 C 752.695312 592.359375 752.320312 591.613281 752.015625 590.828125 C 751.714844 590.046875 751.492188 589.238281 751.347656 588.410156 C 751.203125 587.582031 751.140625 586.75 751.164062 585.910156 C 751.183594 585.066406 751.285156 584.238281 751.46875 583.417969 C 751.652344 582.597656 751.914062 581.800781 752.253906 581.035156 C 752.59375 580.265625 753.007812 579.535156 753.488281 578.847656 C 753.972656 578.160156 754.519531 577.527344 755.128906 576.949219 C 755.734375 576.367188 756.394531 575.851562 757.101562 575.402344 C 757.8125 574.953125 758.558594 574.574219 759.34375 574.273438 C 760.125 573.96875 760.933594 573.746094 761.761719 573.601562 C 762.585938 573.457031 763.421875 573.394531 764.261719 573.414062 C 765.101562 573.4375 765.929688 573.539062 766.75 573.722656 C 767.570312 573.90625 768.363281 574.167969 769.132812 574.507812 C 769.898438 574.847656 770.628906 575.257812 771.3125 575.742188 C 772 576.226562 772.632812 576.773438 773.214844 577.378906 C 773.792969 577.988281 774.308594 578.648438 774.757812 579.359375 C 775.207031 580.066406 775.582031 580.8125 775.886719 581.597656 C 776.1875 582.382812 776.410156 583.1875 776.554688 584.015625 C 776.699219 584.84375 776.761719 585.679688 776.742188 586.519531 C 776.71875 587.359375 776.617188 588.191406 776.433594 589.011719 Z M 776.433594 589.011719 "/>
</clipPath>
<linearGradient id="linear9" gradientUnits="userSpaceOnUse" x1="7.94216" y1="109.709999" x2="34.257795" y2="109.709999" gradientTransform="matrix(1.134809,0.254223,-0.254425,1.135708,771.53003,440.135606)">
<stop offset="0" style="stop-color:rgb(1.158142%,44.93866%,45.042419%);stop-opacity:1;"/>
<stop offset="0.25" style="stop-color:rgb(1.141357%,45.037842%,45.184326%);stop-opacity:1;"/>
<stop offset="0.5" style="stop-color:rgb(1.107788%,45.236206%,45.469666%);stop-opacity:1;"/>
<stop offset="0.75" style="stop-color:rgb(1.074219%,45.43457%,45.755005%);stop-opacity:1;"/>
<stop offset="1" style="stop-color:rgb(1.042175%,45.632935%,46.038818%);stop-opacity:1;"/>
</linearGradient>
<clipPath id="clip33">
  <path d="M 275 0 L 711 0 L 711 242 L 275 242 Z M 275 0 "/>
</clipPath>
<clipPath id="clip34">
  <path d="M 754.511719 158.390625 L 287.15625 264.496094 L 215.421875 -51.460938 L 682.777344 -157.570312 Z M 754.511719 158.390625 "/>
</clipPath>
<clipPath id="clip35">
  <path d="M 754.511719 158.390625 L 287.15625 264.496094 L 215.421875 -51.460938 L 682.777344 -157.570312 Z M 754.511719 158.390625 "/>
</clipPath>
<clipPath id="clip36">
  <path d="M 279.320312 186.246094 C 291.230469 224.046875 330.035156 247.523438 369.035156 240.820312 C 399.203125 235.730469 422.214844 214.65625 431.457031 188.101562 C 436.097656 174.917969 449.332031 166.824219 463.335938 168.144531 C 474.148438 169.210938 485.554688 168.578125 496.726562 166.042969 C 529.488281 158.605469 555.253906 136.710938 568.792969 108.394531 C 576.609375 91.945312 593.042969 81.5625 611.175781 80.378906 C 619.105469 79.949219 627.195312 78.503906 635.074219 76.128906 C 686.210938 60.800781 717.863281 8.808594 708.3125 -43.617188 C 697.527344 -103.195312 639.398438 -141.066406 580.945312 -127.796875 C 556.742188 -122.300781 536.492188 -108.898438 522.117188 -91.15625 C 507.601562 -73.183594 482.484375 -68.265625 462.308594 -79.535156 C 438.789062 -92.585938 410.21875 -96.863281 381.886719 -88.863281 C 329.835938 -74.113281 297.003906 -21.261719 306.914062 31.863281 C 308.121094 38.042969 309.617188 43.769531 311.714844 49.554688 C 318.839844 68.875 314.296875 90.253906 299.578125 104.75 C 278.902344 124.902344 269.703125 155.949219 279.320312 186.246094 Z M 279.320312 186.246094 "/>
</clipPath>
<linearGradient id="linear10" gradientUnits="userSpaceOnUse" x1="0.278611" y1="86.113998" x2="257.920127" y2="86.113998" gradientTransform="matrix(-1.861638,0.422655,-0.422459,-1.860774,754.37634,158.421769)">
<stop offset="0" style="stop-color:rgb(1.197815%,44.706726%,44.711304%);stop-opacity:1;"/>
<stop offset="0.03125" style="stop-color:rgb(1.177979%,44.822693%,44.877625%);stop-opacity:1;"/>
<stop offset="0.0625" style="stop-color:rgb(1.138306%,45.056152%,45.210266%);stop-opacity:1;"/>
<stop offset="0.09375" style="stop-color:rgb(1.100159%,45.288086%,45.544434%);stop-opacity:1;"/>
<stop offset="0.125" style="stop-color:rgb(1.060486%,45.52002%,45.878601%);stop-opacity:1;"/>
<stop offset="0.15625" style="stop-color:rgb(1.020813%,45.751953%,46.211243%);stop-opacity:1;"/>
<stop offset="0.1875" style="stop-color:rgb(0.98114%,45.983887%,46.54541%);stop-opacity:1;"/>
<stop offset="0.21875" style="stop-color:rgb(0.942993%,46.217346%,46.879578%);stop-opacity:1;"/>
<stop offset="0.25" style="stop-color:rgb(0.90332%,46.44928%,47.213745%);stop-opacity:1;"/>
<stop offset="0.28125" style="stop-color:rgb(0.863647%,46.681213%,47.546387%);stop-opacity:1;"/>
<stop offset="0.3125" style="stop-color:rgb(0.823975%,46.913147%,47.880554%);stop-opacity:1;"/>
<stop offset="0.34375" style="stop-color:rgb(0.785828%,47.146606%,48.214722%);stop-opacity:1;"/>
<stop offset="0.375" style="stop-color:rgb(0.746155%,47.37854%,48.547363%);stop-opacity:1;"/>
<stop offset="0.40625" style="stop-color:rgb(0.706482%,47.610474%,48.881531%);stop-opacity:1;"/>
<stop offset="0.4375" style="stop-color:rgb(0.668335%,47.842407%,49.215698%);stop-opacity:1;"/>
<stop offset="0.46875" style="stop-color:rgb(0.628662%,48.075867%,49.54834%);stop-opacity:1;"/>
<stop offset="0.5" style="stop-color:rgb(0.588989%,48.3078%,49.882507%);stop-opacity:1;"/>
<stop offset="0.53125" style="stop-color:rgb(0.549316%,48.539734%,50.216675%);stop-opacity:1;"/>
<stop offset="0.5625" style="stop-color:rgb(0.511169%,48.771667%,50.549316%);stop-opacity:1;"/>
<stop offset="0.59375" style="stop-color:rgb(0.471497%,49.003601%,50.883484%);stop-opacity:1;"/>
<stop offset="0.625" style="stop-color:rgb(0.431824%,49.237061%,51.217651%);stop-opacity:1;"/>
<stop offset="0.65625" style="stop-color:rgb(0.392151%,49.468994%,51.551819%);stop-opacity:1;"/>
<stop offset="0.6875" style="stop-color:rgb(0.354004%,49.700928%,51.88446%);stop-opacity:1;"/>
<stop offset="0.71875" style="stop-color:rgb(0.314331%,49.932861%,52.218628%);stop-opacity:1;"/>
<stop offset="0.75" style="stop-color:rgb(0.274658%,50.166321%,52.552795%);stop-opacity:1;"/>
<stop offset="0.78125" style="stop-color:rgb(0.236511%,50.398254%,52.885437%);stop-opacity:1;"/>
<stop offset="0.8125" style="stop-color:rgb(0.196838%,50.630188%,53.219604%);stop-opacity:1;"/>
<stop offset="0.84375" style="stop-color:rgb(0.157166%,50.862122%,53.553772%);stop-opacity:1;"/>
<stop offset="0.875" style="stop-color:rgb(0.117493%,51.094055%,53.886414%);stop-opacity:1;"/>
<stop offset="0.90625" style="stop-color:rgb(0.0793457%,51.327515%,54.220581%);stop-opacity:1;"/>
<stop offset="0.9375" style="stop-color:rgb(0.0396729%,51.559448%,54.554749%);stop-opacity:1;"/>
<stop offset="1" style="stop-color:rgb(0.00915527%,51.73645%,54.80957%);stop-opacity:1;"/>
</linearGradient>
<clipPath id="clip37">
  <path d="M 593 90 L 639 90 L 639 136 L 593 136 Z M 593 90 "/>
</clipPath>
<clipPath id="clip38">
  <path d="M 754.511719 158.390625 L 287.15625 264.496094 L 215.421875 -51.460938 L 682.777344 -157.570312 Z M 754.511719 158.390625 "/>
</clipPath>
<clipPath id="clip39">
  <path d="M 754.511719 158.390625 L 287.15625 264.496094 L 215.421875 -51.460938 L 682.777344 -157.570312 Z M 754.511719 158.390625 "/>
</clipPath>
<clipPath id="clip40">
  <path d="M 594.054688 117.921875 C 593.890625 117.195312 593.761719 116.464844 593.667969 115.726562 C 593.578125 114.988281 593.519531 114.25 593.5 113.503906 C 593.480469 112.761719 593.496094 112.019531 593.550781 111.277344 C 593.601562 110.535156 593.691406 109.796875 593.816406 109.066406 C 593.941406 108.332031 594.105469 107.609375 594.300781 106.890625 C 594.5 106.171875 594.730469 105.46875 594.996094 104.773438 C 595.261719 104.078125 595.5625 103.398438 595.894531 102.734375 C 596.226562 102.066406 596.59375 101.421875 596.988281 100.792969 C 597.386719 100.164062 597.8125 99.554688 598.269531 98.964844 C 598.726562 98.378906 599.210938 97.816406 599.722656 97.277344 C 600.234375 96.734375 600.769531 96.222656 601.332031 95.734375 C 601.894531 95.246094 602.480469 94.789062 603.085938 94.359375 C 603.695312 93.929688 604.320312 93.53125 604.96875 93.164062 C 605.613281 92.792969 606.277344 92.460938 606.957031 92.15625 C 607.636719 91.851562 608.328125 91.585938 609.035156 91.347656 C 609.738281 91.113281 610.457031 90.914062 611.179688 90.75 C 611.90625 90.585938 612.640625 90.457031 613.378906 90.363281 C 614.117188 90.269531 614.855469 90.214844 615.601562 90.195312 C 616.34375 90.171875 617.085938 90.191406 617.828125 90.242188 C 618.570312 90.296875 619.308594 90.386719 620.042969 90.511719 C 620.773438 90.636719 621.5 90.796875 622.21875 90.992188 C 622.9375 91.191406 623.640625 91.421875 624.335938 91.6875 C 625.03125 91.953125 625.710938 92.253906 626.375 92.585938 C 627.042969 92.917969 627.6875 93.28125 628.320312 93.679688 C 628.949219 94.074219 629.558594 94.5 630.144531 94.957031 C 630.730469 95.414062 631.296875 95.898438 631.835938 96.410156 C 632.375 96.921875 632.890625 97.457031 633.375 98.019531 C 633.863281 98.582031 634.324219 99.164062 634.753906 99.773438 C 635.183594 100.378906 635.582031 101.003906 635.949219 101.652344 C 636.316406 102.296875 636.652344 102.960938 636.957031 103.640625 C 637.257812 104.320312 637.527344 105.011719 637.761719 105.71875 C 637.996094 106.421875 638.199219 107.136719 638.363281 107.863281 C 638.527344 108.589844 638.65625 109.320312 638.75 110.058594 C 638.839844 110.796875 638.898438 111.535156 638.917969 112.28125 C 638.9375 113.023438 638.921875 113.765625 638.867188 114.507812 C 638.816406 115.25 638.726562 115.988281 638.601562 116.71875 C 638.472656 117.453125 638.3125 118.179688 638.117188 118.894531 C 637.917969 119.613281 637.6875 120.316406 637.421875 121.011719 C 637.15625 121.707031 636.855469 122.386719 636.523438 123.050781 C 636.191406 123.71875 635.824219 124.363281 635.429688 124.992188 C 635.03125 125.625 634.605469 126.230469 634.148438 126.820312 C 633.691406 127.40625 633.207031 127.96875 632.695312 128.511719 C 632.183594 129.050781 631.648438 129.5625 631.085938 130.050781 C 630.523438 130.539062 629.9375 130.996094 629.332031 131.425781 C 628.722656 131.855469 628.097656 132.253906 627.449219 132.621094 C 626.804688 132.992188 626.140625 133.324219 625.460938 133.628906 C 624.78125 133.933594 624.089844 134.203125 623.382812 134.4375 C 622.675781 134.671875 621.960938 134.871094 621.234375 135.035156 C 620.511719 135.199219 619.777344 135.328125 619.039062 135.421875 C 618.300781 135.515625 617.5625 135.570312 616.816406 135.589844 C 616.074219 135.613281 615.332031 135.59375 614.589844 135.542969 C 613.847656 135.488281 613.109375 135.402344 612.375 135.273438 C 611.640625 135.148438 610.917969 134.988281 610.199219 134.792969 C 609.480469 134.59375 608.777344 134.363281 608.082031 134.097656 C 607.386719 133.832031 606.707031 133.53125 606.039062 133.199219 C 605.375 132.867188 604.726562 132.503906 604.097656 132.105469 C 603.46875 131.710938 602.859375 131.285156 602.273438 130.828125 C 601.6875 130.371094 601.121094 129.886719 600.582031 129.375 C 600.042969 128.867188 599.527344 128.328125 599.039062 127.765625 C 598.554688 127.203125 598.09375 126.621094 597.664062 126.011719 C 597.234375 125.40625 596.835938 124.78125 596.46875 124.132812 C 596.101562 123.488281 595.765625 122.824219 595.460938 122.144531 C 595.160156 121.464844 594.890625 120.773438 594.65625 120.070312 C 594.417969 119.363281 594.21875 118.648438 594.054688 117.921875 Z M 594.054688 117.921875 "/>
</clipPath>
<linearGradient id="linear11" gradientUnits="userSpaceOnUse" x1="51.054694" y1="86.113998" x2="79.545277" y2="86.113998" gradientTransform="matrix(-1.861638,0.422655,-0.422459,-1.860774,754.37634,158.421769)">
<stop offset="0" style="stop-color:rgb(0.950623%,46.17157%,46.815491%);stop-opacity:1;"/>
<stop offset="0.25" style="stop-color:rgb(0.932312%,46.273804%,46.961975%);stop-opacity:1;"/>
<stop offset="0.5" style="stop-color:rgb(0.897217%,46.479797%,47.257996%);stop-opacity:1;"/>
<stop offset="0.75" style="stop-color:rgb(0.862122%,46.685791%,47.55249%);stop-opacity:1;"/>
<stop offset="1" style="stop-color:rgb(0.828552%,46.890259%,47.848511%);stop-opacity:1;"/>
</linearGradient>
<clipPath id="clip41">
  <path d="M 495 186 L 523 186 L 523 214 L 495 214 Z M 495 186 "/>
</clipPath>
<clipPath id="clip42">
  <path d="M 754.511719 158.390625 L 287.15625 264.496094 L 215.421875 -51.460938 L 682.777344 -157.570312 Z M 754.511719 158.390625 "/>
</clipPath>
<clipPath id="clip43">
  <path d="M 754.511719 158.390625 L 287.15625 264.496094 L 215.421875 -51.460938 L 682.777344 -157.570312 Z M 754.511719 158.390625 "/>
</clipPath>
<clipPath id="clip44">
  <path d="M 495.773438 203.242188 C 495.578125 202.375 495.464844 201.496094 495.441406 200.605469 C 495.417969 199.714844 495.480469 198.832031 495.632812 197.957031 C 495.78125 197.078125 496.015625 196.226562 496.335938 195.394531 C 496.652344 194.5625 497.050781 193.773438 497.523438 193.019531 C 498 192.265625 498.542969 191.566406 499.15625 190.921875 C 499.765625 190.277344 500.4375 189.695312 501.164062 189.183594 C 501.890625 188.667969 502.660156 188.230469 503.472656 187.867188 C 504.285156 187.503906 505.125 187.226562 505.992188 187.027344 C 506.859375 186.832031 507.738281 186.722656 508.628906 186.695312 C 509.519531 186.671875 510.402344 186.734375 511.277344 186.886719 C 512.15625 187.035156 513.011719 187.269531 513.839844 187.585938 C 514.671875 187.90625 515.464844 188.300781 516.21875 188.777344 C 516.96875 189.25 517.667969 189.792969 518.316406 190.40625 C 518.960938 191.015625 519.542969 191.6875 520.054688 192.410156 C 520.570312 193.136719 521.007812 193.90625 521.371094 194.71875 C 521.734375 195.53125 522.011719 196.371094 522.210938 197.238281 C 522.40625 198.105469 522.515625 198.984375 522.539062 199.875 C 522.5625 200.761719 522.5 201.644531 522.351562 202.523438 C 522.199219 203.398438 521.964844 204.253906 521.648438 205.085938 C 521.328125 205.914062 520.933594 206.707031 520.457031 207.460938 C 519.984375 208.210938 519.441406 208.910156 518.828125 209.558594 C 518.214844 210.203125 517.546875 210.785156 516.820312 211.296875 C 516.09375 211.8125 515.324219 212.25 514.511719 212.613281 C 513.699219 212.972656 512.859375 213.253906 511.992188 213.453125 C 511.125 213.648438 510.246094 213.757812 509.355469 213.78125 C 508.464844 213.808594 507.582031 213.742188 506.703125 213.59375 C 505.828125 213.445312 504.972656 213.210938 504.140625 212.890625 C 503.3125 212.574219 502.519531 212.179688 501.765625 211.703125 C 501.011719 211.230469 500.3125 210.6875 499.667969 210.074219 C 499.023438 209.464844 498.441406 208.792969 497.929688 208.066406 C 497.414062 207.34375 496.976562 206.574219 496.613281 205.761719 C 496.25 204.949219 495.972656 204.109375 495.773438 203.242188 Z M 495.773438 203.242188 "/>
</clipPath>
<linearGradient id="linear12" gradientUnits="userSpaceOnUse" x1="121.693187" y1="86.113998" x2="138.706778" y2="86.113998" gradientTransform="matrix(-1.861638,0.422655,-0.422459,-1.860774,754.37634,158.421769)">
<stop offset="0" style="stop-color:rgb(0.605774%,48.210144%,49.743652%);stop-opacity:1;"/>
<stop offset="0.5" style="stop-color:rgb(0.584412%,48.332214%,49.919128%);stop-opacity:1;"/>
<stop offset="1" style="stop-color:rgb(0.543213%,48.577881%,50.271606%);stop-opacity:1;"/>
</linearGradient>
<clipPath id="clip45">
  <path d="M 242 46 L 286 46 L 286 89 L 242 89 Z M 242 46 "/>
</clipPath>
<clipPath id="clip46">
  <path d="M 754.511719 158.390625 L 287.15625 264.496094 L 215.421875 -51.460938 L 682.777344 -157.570312 Z M 754.511719 158.390625 "/>
</clipPath>
<clipPath id="clip47">
  <path d="M 754.511719 158.390625 L 287.15625 264.496094 L 215.421875 -51.460938 L 682.777344 -157.570312 Z M 754.511719 158.390625 "/>
</clipPath>
<clipPath id="clip48">
  <path d="M 243.464844 72.289062 C 243.308594 71.609375 243.1875 70.917969 243.101562 70.226562 C 243.015625 69.53125 242.960938 68.832031 242.941406 68.132812 C 242.925781 67.433594 242.941406 66.734375 242.988281 66.035156 C 243.039062 65.339844 243.125 64.644531 243.242188 63.953125 C 243.359375 63.265625 243.511719 62.582031 243.695312 61.90625 C 243.882812 61.230469 244.101562 60.566406 244.351562 59.914062 C 244.601562 59.261719 244.882812 58.621094 245.195312 57.996094 C 245.511719 57.367188 245.851562 56.757812 246.226562 56.167969 C 246.601562 55.574219 247 55.003906 247.429688 54.449219 C 247.859375 53.898438 248.316406 53.367188 248.796875 52.859375 C 249.277344 52.351562 249.785156 51.867188 250.3125 51.40625 C 250.84375 50.949219 251.394531 50.519531 251.964844 50.113281 C 252.535156 49.710938 253.125 49.332031 253.734375 48.988281 C 254.34375 48.640625 254.96875 48.324219 255.605469 48.039062 C 256.246094 47.753906 256.898438 47.5 257.5625 47.28125 C 258.226562 47.058594 258.902344 46.871094 259.585938 46.714844 C 260.265625 46.5625 260.957031 46.441406 261.652344 46.351562 C 262.34375 46.265625 263.042969 46.210938 263.742188 46.191406 C 264.441406 46.175781 265.140625 46.1875 265.839844 46.238281 C 266.539062 46.289062 267.234375 46.371094 267.921875 46.492188 C 268.613281 46.609375 269.296875 46.761719 269.972656 46.945312 C 270.648438 47.128906 271.3125 47.347656 271.964844 47.597656 C 272.621094 47.847656 273.257812 48.128906 273.886719 48.441406 C 274.511719 48.757812 275.121094 49.101562 275.714844 49.472656 C 276.304688 49.84375 276.878906 50.246094 277.429688 50.675781 C 277.984375 51.105469 278.515625 51.5625 279.023438 52.042969 C 279.53125 52.523438 280.015625 53.027344 280.472656 53.558594 C 280.933594 54.085938 281.363281 54.636719 281.769531 55.207031 C 282.171875 55.777344 282.546875 56.367188 282.894531 56.976562 C 283.242188 57.585938 283.558594 58.207031 283.84375 58.847656 C 284.128906 59.488281 284.378906 60.140625 284.601562 60.804688 C 284.824219 61.46875 285.011719 62.140625 285.164062 62.824219 C 285.320312 63.503906 285.441406 64.195312 285.527344 64.886719 C 285.617188 65.582031 285.667969 66.28125 285.6875 66.980469 C 285.707031 67.679688 285.691406 68.378906 285.640625 69.078125 C 285.589844 69.773438 285.507812 70.46875 285.390625 71.160156 C 285.269531 71.847656 285.121094 72.53125 284.933594 73.207031 C 284.75 73.882812 284.53125 74.546875 284.28125 75.199219 C 284.03125 75.851562 283.75 76.492188 283.433594 77.117188 C 283.121094 77.746094 282.777344 78.355469 282.40625 78.945312 C 282.03125 79.539062 281.628906 80.109375 281.199219 80.664062 C 280.769531 81.214844 280.316406 81.746094 279.832031 82.253906 C 279.351562 82.761719 278.847656 83.246094 278.316406 83.703125 C 277.789062 84.164062 277.238281 84.59375 276.667969 85 C 276.09375 85.402344 275.503906 85.777344 274.894531 86.125 C 274.289062 86.472656 273.664062 86.789062 273.023438 87.074219 C 272.382812 87.359375 271.730469 87.613281 271.066406 87.832031 C 270.402344 88.054688 269.730469 88.242188 269.046875 88.398438 C 268.363281 88.550781 267.675781 88.671875 266.980469 88.761719 C 266.285156 88.847656 265.589844 88.902344 264.886719 88.921875 C 264.1875 88.9375 263.488281 88.921875 262.789062 88.875 C 262.09375 88.824219 261.398438 88.738281 260.707031 88.621094 C 260.019531 88.503906 259.335938 88.351562 258.660156 88.167969 C 257.984375 87.984375 257.320312 87.765625 256.664062 87.515625 C 256.011719 87.265625 255.371094 86.984375 254.746094 86.667969 C 254.121094 86.355469 253.511719 86.011719 252.917969 85.640625 C 252.324219 85.265625 251.753906 84.867188 251.199219 84.4375 C 250.648438 84.007812 250.117188 83.550781 249.609375 83.070312 C 249.101562 82.589844 248.617188 82.085938 248.15625 81.554688 C 247.699219 81.027344 247.265625 80.476562 246.863281 79.90625 C 246.457031 79.335938 246.082031 78.746094 245.738281 78.136719 C 245.390625 77.527344 245.074219 76.902344 244.789062 76.265625 C 244.503906 75.625 244.25 74.972656 244.03125 74.308594 C 243.808594 73.644531 243.621094 72.972656 243.464844 72.289062 Z M 243.464844 72.289062 "/>
</clipPath>
<linearGradient id="linear13" gradientUnits="userSpaceOnUse" x1="226.392647" y1="86.113998" x2="253.207298" y2="86.113998" gradientTransform="matrix(-1.861638,0.422655,-0.422459,-1.860774,754.37634,158.421769)">
<stop offset="0" style="stop-color:rgb(0.0946045%,51.231384%,54.081726%);stop-opacity:1;"/>
<stop offset="0.25" style="stop-color:rgb(0.0778198%,51.327515%,54.220581%);stop-opacity:1;"/>
<stop offset="0.5" style="stop-color:rgb(0.0457764%,51.519775%,54.499817%);stop-opacity:1;"/>
<stop offset="1" style="stop-color:rgb(0.0152588%,51.707458%,54.768372%);stop-opacity:1;"/>
</linearGradient>
</defs>
<g id="surface1">
<rect x="0" y="0" width="1440" height="809.999993" style="fill:rgb(100%,100%,100%);fill-opacity:1;stroke:none;"/>
<rect x="0" y="0" width="1440" height="809.999993" style="fill:rgb(100%,100%,100%);fill-opacity:1;stroke:none;"/>
<rect x="0" y="0" width="1440" height="809.999993" style="fill:rgb(100%,100%,100%);fill-opacity:1;stroke:none;"/>
<g clip-path="url(#clip1)" clip-rule="nonzero">
<g clip-path="url(#clip2)" clip-rule="nonzero">
<path style=" stroke:none;fill-rule:nonzero;fill:url(#linear0);" d="M 481.507812 789.542969 L 481.507812 373.113281 L 0 373.113281 L 0 789.542969 Z M 481.507812 789.542969 "/>
</g>
</g>
<g clip-path="url(#clip3)" clip-rule="nonzero">
<g clip-path="url(#clip4)" clip-rule="nonzero">
<path style=" stroke:none;fill-rule:nonzero;fill:url(#linear1);" d="M 142.65625 810 L 142.65625 753.878906 L 68.207031 753.878906 L 68.207031 810 Z M 142.65625 810 "/>
</g>
</g>
<g clip-path="url(#clip5)" clip-rule="nonzero">
<g clip-path="url(#clip6)" clip-rule="nonzero">
<path style=" stroke:none;fill-rule:nonzero;fill:url(#linear2);" d="M 80.839844 451.660156 L 80.839844 411.484375 L 40.683594 411.484375 L 40.683594 451.660156 Z M 80.839844 451.660156 "/>
</g>
</g>
<g clip-path="url(#clip7)" clip-rule="nonzero">
<g clip-path="url(#clip8)" clip-rule="nonzero">
<path style=" stroke:none;fill-rule:nonzero;fill:url(#linear3);" d="M 458.722656 573.542969 L 458.722656 523.886719 L 409.089844 523.886719 L 409.089844 573.542969 Z M 458.722656 573.542969 "/>
</g>
</g>
<g clip-path="url(#clip9)" clip-rule="nonzero">
<g clip-path="url(#clip10)" clip-rule="nonzero">
<g clip-path="url(#clip11)" clip-rule="nonzero">
<g clip-path="url(#clip12)" clip-rule="nonzero">
<path style=" stroke:none;fill-rule:nonzero;fill:url(#linear4);" d="M 986.425781 -11.023438 L 977.800781 325.003906 L 1439.703125 336.855469 L 1448.324219 0.828125 Z M 986.425781 -11.023438 "/>
</g>
</g>
</g>
</g>
<g clip-path="url(#clip13)" clip-rule="nonzero">
<g clip-path="url(#clip14)" clip-rule="nonzero">
<g clip-path="url(#clip15)" clip-rule="nonzero">
<g clip-path="url(#clip16)" clip-rule="nonzero">
<path style=" stroke:none;fill-rule:nonzero;fill:url(#linear5);" d="M 1389.238281 943.175781 L 1521.175781 597.023438 L 1090.59375 432.90625 L 958.65625 779.058594 Z M 1389.238281 943.175781 "/>
</g>
</g>
</g>
</g>
<g clip-path="url(#clip17)" clip-rule="nonzero">
<g clip-path="url(#clip18)" clip-rule="nonzero">
<g clip-path="url(#clip19)" clip-rule="nonzero">
<g clip-path="url(#clip20)" clip-rule="nonzero">
<path style=" stroke:none;fill-rule:nonzero;fill:url(#linear6);" d="M 761.945312 408.773438 L 698.476562 692.078125 L 1008.597656 761.554688 L 1072.0625 478.246094 Z M 761.945312 408.773438 "/>
</g>
</g>
</g>
</g>
<g clip-path="url(#clip21)" clip-rule="nonzero">
<g clip-path="url(#clip22)" clip-rule="nonzero">
<g clip-path="url(#clip23)" clip-rule="nonzero">
<g clip-path="url(#clip24)" clip-rule="nonzero">
<path style=" stroke:none;fill-rule:nonzero;fill:url(#linear7);" d="M 939.140625 473.851562 L 929.109375 518.628906 L 973.867188 528.65625 L 983.898438 483.878906 Z M 939.140625 473.851562 "/>
</g>
</g>
</g>
</g>
<g clip-path="url(#clip25)" clip-rule="nonzero">
<g clip-path="url(#clip26)" clip-rule="nonzero">
<g clip-path="url(#clip27)" clip-rule="nonzero">
<g clip-path="url(#clip28)" clip-rule="nonzero">
<path style=" stroke:none;fill-rule:nonzero;fill:url(#linear8);" d="M 929.070312 672.414062 L 923.65625 696.585938 L 947.816406 702 L 953.234375 677.824219 Z M 929.070312 672.414062 "/>
</g>
</g>
</g>
</g>
<g clip-path="url(#clip29)" clip-rule="nonzero">
<g clip-path="url(#clip30)" clip-rule="nonzero">
<g clip-path="url(#clip31)" clip-rule="nonzero">
<g clip-path="url(#clip32)" clip-rule="nonzero">
<path style=" stroke:none;fill-rule:nonzero;fill:url(#linear9);" d="M 752.367188 567.929688 L 745.671875 597.808594 L 775.535156 604.496094 L 782.230469 574.621094 Z M 752.367188 567.929688 "/>
</g>
</g>
</g>
</g>
<g clip-path="url(#clip33)" clip-rule="nonzero">
<g clip-path="url(#clip34)" clip-rule="nonzero">
<g clip-path="url(#clip35)" clip-rule="nonzero">
<g clip-path="url(#clip36)" clip-rule="nonzero">
<path style=" stroke:none;fill-rule:nonzero;fill:url(#linear10);" d="M 771.304688 235.390625 L 695.894531 -96.761719 L 216.261719 12.132812 L 291.667969 344.28125 Z M 771.304688 235.390625 "/>
</g>
</g>
</g>
</g>
<g clip-path="url(#clip37)" clip-rule="nonzero">
<g clip-path="url(#clip38)" clip-rule="nonzero">
<g clip-path="url(#clip39)" clip-rule="nonzero">
<g clip-path="url(#clip40)" clip-rule="nonzero">
<path style=" stroke:none;fill-rule:nonzero;fill:url(#linear11);" d="M 648.746094 133.382812 L 636.710938 80.359375 L 583.671875 92.402344 L 595.707031 145.425781 Z M 648.746094 133.382812 "/>
</g>
</g>
</g>
</g>
<g clip-path="url(#clip41)" clip-rule="nonzero">
<g clip-path="url(#clip42)" clip-rule="nonzero">
<g clip-path="url(#clip43)" clip-rule="nonzero">
<g clip-path="url(#clip44)" clip-rule="nonzero">
<path style=" stroke:none;fill-rule:nonzero;fill:url(#linear12);" d="M 528.421875 212.476562 L 521.234375 180.8125 L 489.558594 188.003906 L 496.75 219.667969 Z M 528.421875 212.476562 "/>
</g>
</g>
</g>
</g>
<g clip-path="url(#clip45)" clip-rule="nonzero">
<g clip-path="url(#clip46)" clip-rule="nonzero">
<g clip-path="url(#clip47)" clip-rule="nonzero">
<g clip-path="url(#clip48)" clip-rule="nonzero">
<path style=" stroke:none;fill-rule:nonzero;fill:url(#linear13);" d="M 294.941406 86.84375 L 283.609375 36.9375 L 233.691406 48.269531 L 245.019531 98.175781 Z M 294.941406 86.84375 "/>
</g>
</g>
</g>
</g>
</g>
</svg>
