<?xml version="1.0" encoding="UTF-8"?>
<svg xmlns="http://www.w3.org/2000/svg" xmlns:xlink="http://www.w3.org/1999/xlink" width="1440pt" height="809.999993pt" viewBox="0 0 1440 809.999993" version="1.2">
<g id="surface1">
<rect x="0" y="0" width="1440" height="809.999993" style="fill:rgb(100%,100%,100%);fill-opacity:1;stroke:none;"/>
<rect x="0" y="0" width="1440" height="809.999993" style="fill:rgb(100%,100%,100%);fill-opacity:1;stroke:none;"/>
<rect x="0" y="0" width="1440" height="809.999993" style="fill:rgb(100%,100%,100%);fill-opacity:1;stroke:none;"/>
<path style=" stroke:none;fill-rule:nonzero;fill:rgb(100%,87.059021%,34.899902%);fill-opacity:1;" d="M 142.242188 475.878906 C 138.597656 475.878906 134.953125 475.96875 131.3125 476.148438 C 127.671875 476.328125 124.039062 476.59375 120.410156 476.953125 C 116.78125 477.308594 113.164062 477.757812 109.558594 478.289062 C 105.953125 478.824219 102.363281 479.449219 98.789062 480.160156 C 95.210938 480.871094 91.65625 481.667969 88.121094 482.554688 C 84.582031 483.441406 81.070312 484.414062 77.582031 485.472656 C 74.09375 486.53125 70.632812 487.671875 67.203125 488.902344 C 63.769531 490.128906 60.367188 491.441406 57 492.835938 C 53.632812 494.230469 50.300781 495.707031 47.003906 497.265625 C 43.710938 498.824219 40.453125 500.464844 37.238281 502.183594 C 34.023438 503.902344 30.855469 505.695312 27.726562 507.570312 C 24.601562 509.445312 21.519531 511.394531 18.492188 513.421875 C 15.460938 515.445312 12.480469 517.542969 9.550781 519.714844 C 6.625 521.886719 3.75 524.128906 0.933594 526.441406 C -1.886719 528.753906 -4.644531 531.136719 -7.347656 533.582031 C -10.046875 536.03125 -12.6875 538.542969 -15.265625 541.121094 C -17.84375 543.699219 -20.355469 546.339844 -22.804688 549.039062 C -25.25 551.742188 -27.632812 554.5 -29.945312 557.320312 C -32.257812 560.136719 -34.5 563.011719 -36.671875 565.9375 C -38.84375 568.867188 -40.941406 571.84375 -42.964844 574.875 C -44.992188 577.90625 -46.941406 580.988281 -48.816406 584.113281 C -50.691406 587.242188 -52.484375 590.410156 -54.203125 593.625 C -55.921875 596.839844 -57.5625 600.097656 -59.121094 603.390625 C -60.679688 606.6875 -62.15625 610.019531 -63.550781 613.386719 C -64.945312 616.753906 -66.257812 620.15625 -67.484375 623.585938 C -68.714844 627.019531 -69.855469 630.480469 -70.914062 633.96875 C -71.972656 637.457031 -72.945312 640.96875 -73.832031 644.507812 C -74.714844 648.042969 -75.515625 651.597656 -76.226562 655.171875 C -76.9375 658.75 -77.5625 662.339844 -78.09375 665.945312 C -78.628906 669.550781 -79.078125 673.167969 -79.433594 676.796875 C -79.792969 680.425781 -80.058594 684.058594 -80.238281 687.699219 C -80.417969 691.339844 -80.507812 694.984375 -80.507812 698.628906 C -80.507812 702.277344 -80.417969 705.917969 -80.238281 709.558594 C -80.058594 713.199219 -79.792969 716.835938 -79.433594 720.464844 C -79.078125 724.089844 -78.628906 727.707031 -78.09375 731.3125 C -77.5625 734.921875 -76.9375 738.511719 -76.226562 742.085938 C -75.515625 745.660156 -74.714844 749.21875 -73.832031 752.753906 C -72.945312 756.289062 -71.972656 759.800781 -70.914062 763.289062 C -69.855469 766.78125 -68.714844 770.238281 -67.484375 773.671875 C -66.257812 777.105469 -64.945312 780.503906 -63.550781 783.871094 C -62.15625 787.242188 -60.679688 790.574219 -59.121094 793.867188 C -57.5625 797.164062 -55.921875 800.417969 -54.203125 803.632812 C -52.484375 806.847656 -50.691406 810.019531 -48.816406 813.144531 C -46.941406 816.273438 -44.992188 819.351562 -42.964844 822.382812 C -40.941406 825.414062 -38.84375 828.394531 -36.671875 831.320312 C -34.5 834.25 -32.257812 837.125 -29.945312 839.941406 C -27.632812 842.757812 -25.25 845.519531 -22.804688 848.21875 C -20.355469 850.921875 -17.84375 853.558594 -15.265625 856.136719 C -12.6875 858.714844 -10.046875 861.230469 -7.347656 863.675781 C -4.644531 866.125 -1.886719 868.503906 0.933594 870.816406 C 3.75 873.128906 6.625 875.371094 9.550781 877.542969 C 12.480469 879.714844 15.460938 881.816406 18.492188 883.839844 C 21.519531 885.863281 24.601562 887.816406 27.726562 889.6875 C 30.855469 891.5625 34.023438 893.359375 37.238281 895.078125 C 40.453125 896.796875 43.710938 898.433594 47.003906 899.992188 C 50.300781 901.550781 53.632812 903.027344 57 904.425781 C 60.367188 905.820312 63.769531 907.128906 67.203125 908.359375 C 70.632812 909.585938 74.09375 910.730469 77.582031 911.789062 C 81.070312 912.847656 84.582031 913.820312 88.121094 914.703125 C 91.65625 915.589844 95.210938 916.390625 98.789062 917.101562 C 102.363281 917.8125 105.953125 918.433594 109.558594 918.96875 C 113.164062 919.503906 116.78125 919.949219 120.410156 920.308594 C 124.039062 920.664062 127.671875 920.933594 131.3125 921.113281 C 134.953125 921.289062 138.597656 921.378906 142.242188 921.378906 C 145.890625 921.378906 149.53125 921.289062 153.171875 921.113281 C 156.8125 920.933594 160.449219 920.664062 164.078125 920.308594 C 167.703125 919.949219 171.320312 919.503906 174.925781 918.96875 C 178.535156 918.433594 182.125 917.8125 185.699219 917.101562 C 189.273438 916.390625 192.832031 915.589844 196.367188 914.703125 C 199.902344 913.820312 203.414062 912.847656 206.90625 911.789062 C 210.394531 910.730469 213.851562 909.585938 217.285156 908.359375 C 220.71875 907.128906 224.117188 905.820312 227.484375 904.425781 C 230.855469 903.027344 234.1875 901.550781 237.480469 899.992188 C 240.777344 898.433594 244.03125 896.796875 247.246094 895.078125 C 250.460938 893.359375 253.632812 891.5625 256.761719 889.6875 C 259.886719 887.816406 262.964844 885.863281 265.996094 883.839844 C 269.027344 881.816406 272.007812 879.714844 274.933594 877.542969 C 277.863281 875.371094 280.738281 873.128906 283.554688 870.816406 C 286.371094 868.503906 289.132812 866.125 291.832031 863.675781 C 294.535156 861.230469 297.171875 858.714844 299.75 856.136719 C 302.328125 853.558594 304.84375 850.921875 307.289062 848.21875 C 309.738281 845.519531 312.117188 842.757812 314.429688 839.941406 C 316.746094 837.125 318.984375 834.25 321.15625 831.320312 C 323.328125 828.394531 325.429688 825.414062 327.453125 822.382812 C 329.480469 819.351562 331.429688 816.273438 333.300781 813.144531 C 335.175781 810.019531 336.972656 806.847656 338.691406 803.632812 C 340.410156 800.417969 342.046875 797.164062 343.605469 793.867188 C 345.164062 790.574219 346.640625 787.242188 348.039062 783.871094 C 349.433594 780.503906 350.746094 777.105469 351.972656 773.671875 C 353.199219 770.238281 354.34375 766.78125 355.402344 763.289062 C 356.460938 759.800781 357.433594 756.289062 358.316406 752.753906 C 359.203125 749.21875 360.003906 745.660156 360.714844 742.085938 C 361.425781 738.511719 362.046875 734.921875 362.582031 731.3125 C 363.117188 727.707031 363.5625 724.089844 363.921875 720.464844 C 364.277344 716.835938 364.546875 713.199219 364.726562 709.558594 C 364.902344 705.917969 364.992188 702.277344 364.992188 698.628906 C 364.992188 694.984375 364.902344 691.339844 364.726562 687.699219 C 364.546875 684.058594 364.277344 680.425781 363.921875 676.796875 C 363.5625 673.167969 363.117188 669.550781 362.582031 665.945312 C 362.046875 662.339844 361.425781 658.75 360.714844 655.171875 C 360.003906 651.597656 359.203125 648.042969 358.316406 644.507812 C 357.433594 640.96875 356.460938 637.457031 355.402344 633.96875 C 354.34375 630.480469 353.199219 627.019531 351.972656 623.585938 C 350.746094 620.15625 349.433594 616.753906 348.039062 613.386719 C 346.640625 610.019531 345.164062 606.6875 343.605469 603.390625 C 342.046875 600.097656 340.410156 596.839844 338.691406 593.625 C 336.972656 590.410156 335.175781 587.242188 333.300781 584.113281 C 331.429688 580.988281 329.480469 577.90625 327.453125 574.875 C 325.429688 571.84375 323.328125 568.867188 321.15625 565.9375 C 318.984375 563.011719 316.746094 560.136719 314.429688 557.320312 C 312.117188 554.5 309.738281 551.742188 307.289062 549.039062 C 304.84375 546.339844 302.328125 543.699219 299.75 541.121094 C 297.171875 538.542969 294.535156 536.03125 291.832031 533.582031 C 289.132812 531.136719 286.371094 528.753906 283.554688 526.441406 C 280.738281 524.128906 277.863281 521.886719 274.933594 519.714844 C 272.007812 517.542969 269.027344 515.445312 265.996094 513.421875 C 262.964844 511.394531 259.886719 509.445312 256.761719 507.570312 C 253.632812 505.695312 250.460938 503.902344 247.246094 502.183594 C 244.03125 500.464844 240.777344 498.824219 237.480469 497.265625 C 234.1875 495.707031 230.855469 494.230469 227.484375 492.835938 C 224.117188 491.441406 220.71875 490.128906 217.285156 488.902344 C 213.851562 487.671875 210.394531 486.53125 206.90625 485.472656 C 203.414062 484.414062 199.902344 483.441406 196.367188 482.554688 C 192.832031 481.667969 189.273438 480.871094 185.699219 480.160156 C 182.125 479.449219 178.535156 478.824219 174.925781 478.289062 C 171.320312 477.757812 167.703125 477.308594 164.078125 476.953125 C 160.449219 476.59375 156.8125 476.328125 153.171875 476.148438 C 149.53125 475.96875 145.890625 475.878906 142.242188 475.878906 Z M 142.242188 475.878906 "/>
<path style=" stroke:none;fill-rule:nonzero;fill:rgb(100%,34.118652%,34.118652%);fill-opacity:1;" d="M 1612.855469 164.574219 L 1121.878906 318.117188 L 1234.382812 -183.851562 Z M 1612.855469 164.574219 "/>
</g>
</svg>
