<?xml version="1.0" encoding="UTF-8"?>
<svg xmlns="http://www.w3.org/2000/svg" xmlns:xlink="http://www.w3.org/1999/xlink" width="1537.5pt" height="585.000005pt" viewBox="0 0 1537.5 585.000005" version="1.2">
<g id="surface1">
<path style=" stroke:none;fill-rule:nonzero;fill:rgb(99.609375%,76.078796%,5.879211%);fill-opacity:1;" d="M 1072.820312 127.46875 L 390.433594 127.46875 L 390.433594 139.730469 L 1123.929688 139.730469 L 1123.929688 127.46875 Z M 1072.820312 127.46875 "/>
<path style=" stroke:none;fill-rule:nonzero;fill:rgb(99.609375%,76.078796%,5.879211%);fill-opacity:1;" d="M 393.808594 347.792969 L 393.808594 126.957031 L 385.550781 126.957031 L 385.550781 381.957031 L 393.808594 381.957031 Z M 393.808594 347.792969 "/>
<path style=" stroke:none;fill-rule:nonzero;fill:rgb(99.609375%,76.078796%,5.879211%);fill-opacity:1;" d="M 1126.792969 345.152344 L 1126.792969 126.949219 L 1118.617188 126.949219 L 1118.617188 379.316406 L 1126.792969 379.316406 Z M 1126.792969 345.152344 "/>
<path style=" stroke:none;fill-rule:nonzero;fill:rgb(99.609375%,76.078796%,5.879211%);fill-opacity:1;" d="M 601.078125 369.328125 L 390.441406 369.328125 L 390.441406 381.535156 L 652.128906 381.535156 L 652.128906 369.328125 Z M 601.078125 369.328125 "/>
<path style=" stroke:none;fill-rule:nonzero;fill:rgb(99.609375%,76.078796%,5.879211%);fill-opacity:1;" d="M 722.539062 426.394531 L 651.648438 370.113281 L 644.007812 379.738281 L 754.882812 467.761719 L 762.523438 458.136719 Z M 722.539062 426.394531 "/>
<path style=" stroke:none;fill-rule:nonzero;fill:rgb(99.609375%,76.078796%,5.879211%);fill-opacity:1;" d="M 816.769531 400.226562 L 747.085938 457.992188 L 754.929688 467.453125 L 863.917969 377.105469 L 856.074219 367.640625 Z M 816.769531 400.226562 "/>
<path style=" stroke:none;fill-rule:nonzero;fill:rgb(99.609375%,76.078796%,5.879211%);fill-opacity:1;" d="M 1073.355469 368.558594 L 853.441406 368.558594 L 853.441406 380.554688 L 1123.089844 380.554688 L 1123.089844 368.558594 Z M 1073.355469 368.558594 "/>
</g>
</svg>
